/* XPM */
static char *_2e9e5a860c14cd78d7d5f9c01644a843J0P883lkIKfJecU[] = {
/* columns rows colors chars-per-pixel */
"64 64 103 2 ",
"   c #084C1B",
".  c #0B531C",
"X  c #26661D",
"o  c #2B6E1F",
"O  c #0A5D21",
"+  c #0D6423",
"@  c #0C6C26",
"#  c #146B24",
"$  c #1A6D23",
"%  c #0E7127",
"&  c #0E7228",
"*  c #0E792B",
"=  c #117227",
"-  c #127528",
";  c #1D7328",
":  c #137C2B",
">  c #1D7C2B",
",  c #226C21",
"<  c #207D2B",
"1  c #436D19",
"2  c #44701A",
"3  c #4E7218",
"4  c #4F7E1D",
"5  c #597717",
"6  c #587718",
"7  c #537B1C",
"8  c #5A7D1B",
"9  c #6D7F15",
"0  c #14822E",
"q  c #128530",
"w  c #178D32",
"e  c #1B8E32",
"r  c #1E9233",
"t  c #20862F",
"y  c #298A2F",
"u  c #3D8629",
"i  c #318C2E",
"p  c #3C8A2E",
"a  c #239534",
"s  c #329733",
"d  c #3C9D36",
"f  c #37A037",
"g  c #38A137",
"h  c #37A238",
"j  c #3CA338",
"k  c #5A841D",
"l  c #6E8216",
"z  c #67821B",
"x  c #7A8715",
"c  c #7B8916",
"v  c #7B8C19",
"b  c #478D2C",
"n  c #488D2C",
"m  c #53922B",
"M  c #5A962C",
"N  c #5E992D",
"B  c #4D9631",
"V  c #409E35",
"C  c #668D21",
"Z  c #639125",
"A  c #629A2D",
"S  c #729523",
"D  c #7A9721",
"F  c #7C9B23",
"G  c #4DAE3A",
"H  c #50AA39",
"J  c #55B13C",
"K  c #5DB73C",
"L  c #66A733",
"P  c #65B63C",
"I  c #63BB3D",
"U  c #6EBA3C",
"Y  c #71BD3D",
"T  c #75C13F",
"R  c #74C641",
"E  c #7CC740",
"W  c #7DCA41",
"Q  c #838B15",
"!  c #838F18",
"~  c #8E9317",
"^  c #879118",
"/  c #889219",
"(  c #909517",
")  c #9F9813",
"_  c #A49912",
"`  c #AB9C12",
"'  c #BDA30F",
"]  c #A9A015",
"[  c #C3A50F",
"{  c #C5A60F",
"}  c #C9A90F",
"|  c #CDAA0E",
" . c #D1AB0E",
".. c #D1AD0E",
"X. c #D5AE0E",
"o. c #DFB30D",
"O. c #E0B40D",
"+. c #E7B70D",
"@. c #E8B70D",
"#. c #E9B80D",
"$. c #ECB90C",
"%. c #83CF43",
"&. c #84CF43",
/* pixels */
"+.+.+.+.+.+.+.+.+.+.+.+.+.+.+.+.+.+.+.+.+.+.+.+.+.+.#...! Z B B Z c ..#.+.+.+.+.+.+.+.+.+.+.+.+.+.+.+.+.+.+.+.+.+.+.+.+.+.+.+.+.",
"+.+.+.+.+.+.+.+.+.+.+.+.+.+.+.+.+.+.+.+.+.+.+.+.+.#.X.F U E &.&.T e k X.#.+.+.+.+.+.+.+.+.+.+.+.+.+.+.+.+.+.+.+.+.+.+.+.+.+.+.+.",
"+.+.+.+.+.+.+.+.+.+.+.+.+.+.+.+.+.+.+.+.+.+.+.+.#.X.F T &.%.%.%.R a & 7 X.@.+.+.+.+.+.+.+.+.+.+.+.+.+.+.+.+.+.+.+.+.+.+.+.+.+.+.",
"+.+.+.+.+.+.+.+.+.+.+.+.+.+.+.+.+.+.+.+.+.+.+.@.o.D T %.Y E %.&.G w : @ 8 o.@.+.+.+.+.+.+.+.+.+.+.+.+.+.+.+.+.+.+.+.+.+.+.+.+.+.",
"+.+.+.+.+.+.+.+.+.+.+.+.+.+.+.+.+.+.+.+.+.+.+.#.{ A %.%.E %.W K a w 0 % , { #.+.+.+.+.+.+.+.+.+.+.+.+.+.+.+.+.+.+.+.+.+.+.+.+.+.",
"+.+.+.+.+.+.+.+.+.+.+.+.+.+.+.+.+.+.+.+.+.+.+.#.~ U %.%.W I f e w w 0 = @ Q #.+.+.+.+.+.+.+.+.+.+.+.+.+.+.+.+.+.+.+.+.+.+.+.+.+.",
"+.+.+.+.+.+.+.+.+.+.+.+.+.+.+.+.+.+.+.+.+.+.+.#.^ Y &.E j e w w w w 0 = @ x #.+.+.+.+.+.+.+.+.+.+.+.+.+.+.+.+.+.+.+.+.+.+.+.+.+.",
"+.+.+.+.+.+.+.+.+.+.+.+.+.+.+.+.+.+.+.+.+.+.+.#.^ Y W j w w w w w w : = @ 5 O.@.+.+.+.+.+.+.+.+.+.+.+.+.+.+.+.+.+.+.+.+.+.+.+.+.",
"+.+.+.+.+.+.+.+.+.+.+.+.+.+.+.+.@.#.@.+.+.+.+.#.^ Y I e w w w w w w 0 = @ l @.+.+.+.+.+.+.+.+.+.+.+.+.+.+.+.+.+.+.+.+.+.+.+.+.+.",
"+.+.+.+.+.+.+.+.+.+.+.+.+.+.+.#.o.| o.#.+.+.@.o.v Y G w w w 0 w w w w - @ x #.+.+.+.+.+.+.+.+.+.+.+.+.+.+.+.+.+.+.+.+.+.+.+.+.+.",
"+.+.+.+.+.+.+.+.+.+.+.+.+.+.+.` S u 4 ` @.+.#.' 8 U g w w w w w w w w - @ x #.+.+.+.+.+.+.+.+.+.+.+.+.+.+.+.+.+.+.+.+.+.+.+.+.+.",
"+.+.+.+.+.+.+.+.+.+.+.+.+.+.] L J e & , ) +.+.$./ P a w w w w w w w w - @ x #.+.+.+.+.+.+.+.+.+.+.+.+.+.+.+.+.+.+.+.+.+.+.+.+.+.",
"+.+.+.+.+.+.+.+.+.+.+.+.#.} M j e : = % o } #.#.^ P a w w w w w w w w - @ x #.+.+.+.+.+.+.+.+.+.+.+.+.+.+.+.+.+.+.+.+.+.+.+.+.+.",
"+.+.+.+.+.+.+.+.+.+.+.+.#.( d w 0 = = = @ Q #.#.^ P a w w w w w w w 0 = @ x #.+.+.+.+.+.+.+.+.+.+.+.+.+.+.+.+.+.+.+.+.+.+.+.+.+.",
"+.+.+.+.+.+.+.+.+.+.+.+.+.v d w 0 = = = @ x #.#./ H r w 0 w w w w w : = @ x #.+.+.+.+.+.+.+.+.+.+.+.+.+.+.+.+.+.+.+.+.+.+.+.+.+.",
"+.+.+.+.+.+.+.+.+.+.+.@.o.z d w w - = = @ x #.#./ d w w w w w w w w - = @ x #.+.+.+.+.+.+.+.+.+.+.+.+.+.+.+.+.+.+.+.+.+.+.+.+.+.",
"+.+.+.+.+.+.+.+.+.+.+.+.#./ d w w : = = @ x #.#./ d w w w w w w w w - = @ x $.+.+.+.+.+.+.#.#.@.+.+.+.+.+.+.+.+.+.+.+.+.+.+.+.+.",
"+.+.+.+.+.+.+.+.+.+.+.+.#./ d w 0 0 = = @ x #.#./ d w w w w w w w w - = @ l o.@.+.+.+.#.+. .| o.#.+.+.+.+.+.+.+.+.+.+.+.+.+.+.+.",
"+.+.+.+.+.+.+.+.+.+.+.+.#./ d w w 0 = = @ x #.#./ d w w w w w w w w - = @ 3 ' #.+.+.#.X./ A N C ` @.+.+.+.+.+.+.+.+.+.+.+.+.+.+.",
"+.+.+.+.+.+.+.+.+.+.+.+.#./ d w w 0 = = @ 5 O.#./ d w w w w w w w w - = @ x $.+.+.#.X.F Y %.R t , ) +.+.+.+.+.+.+.+.+.+.+.+.+.+.",
"+.+.+.+.+.+.+.+.+.+.+.+.#./ d w w w - = @ l @.#./ d w w w w w w w w - = @ x #.+.+.+./ Y &.E j 0 % o } #.+.+.+.+.+.+.+.+.+.+.+.+.",
"+.+.+.+.+.+.+.+.+.+.+.+.#./ d w w w - = @ x #.#./ d w w w w w w 0 w - = @ x #.+.#. .A %.W j w : = @ Q #.+.+.+.+.+.+.+.+.+.+.+.+.",
"+.+.+.+.+.+.+.+.+.+.+.+.#./ d w w w - = @ x #.#./ d w w w w w w w w - = @ x #.+.#.| N &.K e w 0 = @ 6 O.@.+.+.+.+.+.+.+.+.+.+.+.",
"+.+.+.+.+.+.+.+.+.+.+.@.o.v d 0 w w - = @ x #.#./ d w w w w w w w w - = @ x #.+.#.| A I a w 0 : = @ l @.+.+.+.+.+.+.+.+.+.+.+.+.",
"+.+.+.+.+.+.+.+.+.+.+.#.' 8 d w w w : = @ x #.#./ d w w w w w w w w - = @ x #.+.#.| M h w w w w : @ x #.+.+.+.+.+.+.+.+.+.+.+.+.",
"+.+.+.+.+.+.+.+.+.+.+.+.$./ d w w w 0 = @ x $.o.z d w w w w w w w w - = @ x #.+.#.| m a w w w w 0 @ x #.+.+.+.+.+.+.+.+.+.+.+.+.",
"+.+.+.+.+.+.+.+.+.+.+.+.#./ d w w w : = @ x #.+.v d w w w w w w w 0 = = @ x #.+.#.| m a w w w w 0 @ x #.+.+.+.+.+.+.+.+.+.+.+.+.",
"+.+.+.+.+.+.+.+.+.+.+.+.#./ d w w w 0 = @ x #.#./ d w 0 w w w w w : = = @ x #.+.#.` n a w w w w 0 @ x #.+.+.+.+.+.+.+.+.+.+.+.+.",
"+.+.+.+.+.+.+.+.+.+.+.+.#./ d w w w w - @ c $.$./ d w w w w w w w 0 = = @ x #.+.#.[ m a w w w w 0 @ x #.+.+.+.+.+.+.+.+.+.+.+.+.",
"+.+.+.+.+.+.+.+.+.+.+.+.#./ d w w w 0 - @ 2 x x 7 d w w w w w w w 0 = = @ x #.+.#.| m a w 0 w w w @ x #.+.+.+.+.+.+.+.+.+.+.+.+.",
"+.+.+.+.+.+.+.+.+.+.+.+.#./ d w w w w 0 - @ @ * ; V w w w w w w w 0 = = @ l @.+.#.| m a w w w w w @ l @.+.+.+.+.+.+.+.+.+.+.+.+.",
"+.+.+.+.+.+.+.+.+.+.+.+.#./ d w w w w w 0 : 0 w < d w w w w w w w 0 = = @ 5 O.@.#.| m a w w w w w % 5 O.@.+.+.+.+.+.+.+.+.+.+.+.",
"+.+.+.+.+.+.+.+.+.+.+.+.#./ d w w w w w w w w w < d w w w w w w w : = = @ x #.+.#.| m a w w w w w @ x #.+.+.+.+.+.+.+.+.+.+.+.+.",
"+.+.+.+.+.+.+.+.+.+.+.+.#.^ d w w w w w w w w w < d w w w w w w w - = = @ x #.+.#.| m a w w w w 0 @ x #.+.+.+.+.+.+.+.+.+.+.+.+.",
"+.+.+.+.+.+.+.+.+.+.+.+.#.` i 0 w w w w w w w w < d w w w w w w w - = = @ x #.+.#.| m a w w w w 0 @ x #.+.+.+.+.+.+.+.+.+.+.+.+.",
"+.+.+.+.+.+.+.+.+.+.+.+.@.o.k q w w w w w 0 w w < d w w w 0 w w w - = = @ x #.+.#.| m a w w w w 0 @ x #.+.+.+.+.+.+.+.+.+.+.+.+.",
"+.+.+.+.+.+.+.+.+.+.+.+.+.#.X.k > q q q q q q q > V w w w w w w w 0 = = @ x $.#.#.| m a w w w w : @ x #.+.+.+.+.+.+.+.+.+.+.+.+.",
"+.+.+.+.+.+.+.+.+.+.+.+.+.+.#.o._ c c c c c c c 7 d w e w w w w w w : = + 9  .| | ' m a w w w w - @ x #.+.+.+.+.+.+.+.+.+.+.+.+.",
"+.+.+.+.+.+.+.+.+.+.+.+.+.+.+.@.#.#.#.#.#.#.#.$./ d w w w w w w w w w y p b m m m m s e w w w 0 = @ x #.+.+.+.+.+.+.+.+.+.+.+.+.",
"+.+.+.+.+.+.+.+.+.+.+.+.+.+.+.+.+.+.+.+.+.+.+.#./ d w w w w w w w w w r a a a a a a e w w w 0 0 = @ x #.+.+.+.+.+.+.+.+.+.+.+.+.",
"+.+.+.+.+.+.+.+.+.+.+.+.+.+.+.+.+.+.+.+.+.+.+.#./ d w w w w w w w w w w w w w w w w w w w w w : = @ x #.+.+.+.+.+.+.+.+.+.+.+.+.",
"+.+.+.+.+.+.+.+.+.+.+.+.+.+.+.+.+.+.+.+.+.+.+.#./ d w w w w w w w w w w w w w w w w w w w w 0 = = @ x #.+.+.+.+.+.+.+.+.+.+.+.+.",
"+.+.+.+.+.+.+.+.+.+.+.+.+.+.+.+.+.+.+.+.+.+.+.#./ d w w w w w w w 0 w w w w w w 0 w w w w w : = = @ x #.+.+.+.+.+.+.+.+.+.+.+.+.",
"+.+.+.+.+.+.+.+.+.+.+.+.+.+.+.+.+.+.+.+.+.+.+.#./ d w w w w w w w w w w w w w w w w w w w : = = = # _ #.+.+.+.+.+.+.+.+.+.+.+.+.",
"+.+.+.+.+.+.+.+.+.+.+.+.+.+.+.+.+.+.+.+.+.+.+.#./ d w w w w w w w w w w 0 0 0 0 0 : - - - = = = @ 8 o.@.+.+.+.+.+.+.+.+.+.+.+.+.",
"+.+.+.+.+.+.+.+.+.+.+.+.+.+.+.+.+.+.+.+.+.+.+.#./ d w w w w w w w : - = # @ @ @ @ @ @ @ @ @ @ # 8 X.#.+.+.+.+.+.+.+.+.+.+.+.+.+.",
"+.+.+.+.+.+.+.+.+.+.+.+.+.+.+.+.+.+.+.+.+.+.+.#./ d w w w w w w w + . . . 1 c x x x x x x x x _ o.#.+.+.+.+.+.+.+.+.+.+.+.+.+.+.",
"+.+.+.+.+.+.+.+.+.+.+.+.+.+.+.+.+.+.+.+.+.+.+.#./ d w w w w w w w = + .   x $.#.#.#.#.#.#.#.#.#.@.+.+.+.+.+.+.+.+.+.+.+.+.+.+.+.",
"+.+.+.+.+.+.+.+.+.+.+.+.+.+.+.+.+.+.+.+.+.+.+.#./ d w 0 w w w w w - = # . x #.+.+.+.+.+.+.+.+.+.+.+.+.+.+.+.+.+.+.+.+.+.+.+.+.+.",
"+.+.+.+.+.+.+.+.+.+.+.+.+.+.+.+.+.+.+.+.+.+.+.#./ d w w w w w w w : = = O x #.+.+.+.+.+.+.+.+.+.+.+.+.+.+.+.+.+.+.+.+.+.+.+.+.+.",
"+.+.+.+.+.+.+.+.+.+.+.+.+.+.+.+.+.+.+.+.+.+.+.#./ d w w w w w w w 0 = = + x #.+.+.+.+.+.+.+.+.+.+.+.+.+.+.+.+.+.+.+.+.+.+.+.+.+.",
"+.+.+.+.+.+.+.+.+.+.+.+.+.+.+.+.+.+.+.+.+.+.+.$./ d w w w w w w w w - = @ x #.+.+.+.+.+.+.+.+.+.+.+.+.+.+.+.+.+.+.+.+.+.+.+.+.+.",
"+.+.+.+.+.+.+.+.+.+.+.+.+.+.+.+.+.+.+.+.+.+.#.' 8 d w w w w w w w w - = @ x #.+.+.+.+.+.+.+.+.+.+.+.+.+.+.+.+.+.+.+.+.+.+.+.+.+.",
"+.+.+.+.+.+.+.+.+.+.+.+.+.+.+.+.+.+.+.+.+.+.@.o.v d w w w w w w 0 w : = @ x #.+.+.+.+.+.+.+.+.+.+.+.+.+.+.+.+.+.+.+.+.+.+.+.+.+.",
"+.+.+.+.+.+.+.+.+.+.+.+.+.+.+.+.+.+.+.+.+.+.+.#./ d w w w w w w w w 0 = @ x #.+.+.+.+.+.+.+.+.+.+.+.+.+.+.+.+.+.+.+.+.+.+.+.+.+.",
"+.+.+.+.+.+.+.+.+.+.+.+.+.+.+.+.+.+.+.+.+.+.+.#./ d w w w w w w w w w - @ x #.+.+.+.+.+.+.+.+.+.+.+.+.+.+.+.+.+.+.+.+.+.+.+.+.+.",
"+.+.+.+.+.+.+.+.+.+.+.+.+.+.+.+.+.+.+.+.+.+.+.#./ d w w w w w w w w w : @ 5 O.@.+.+.+.+.+.+.+.+.+.+.+.+.+.+.+.+.+.+.+.+.+.+.+.+.",
"+.+.+.+.+.+.+.+.+.+.+.+.+.+.+.+.+.+.+.+.+.+.+.#./ d w w w w w w w w w 0 @ l @.+.+.+.+.+.+.+.+.+.+.+.+.+.+.+.+.+.+.+.+.+.+.+.+.+.",
"+.+.+.+.+.+.+.+.+.+.+.+.+.+.+.+.+.+.+.+.+.+.+.#./ d w 0 w w w w w w w w @ x #.+.+.+.+.+.+.+.+.+.+.+.+.+.+.+.+.+.+.+.+.+.+.+.+.+.",
"+.+.+.+.+.+.+.+.+.+.+.+.+.+.+.+.+.+.+.+.+.+.+.#./ d w w w w w w w w w w @ x #.+.+.+.+.+.+.+.+.+.+.+.+.+.+.+.+.+.+.+.+.+.+.+.+.+.",
"+.+.+.+.+.+.+.+.+.+.+.+.+.+.+.+.+.+.+.+.+.+.+.#./ d w w w w w w w w w w @ x #.+.+.+.+.+.+.+.+.+.+.+.+.+.+.+.+.+.+.+.+.+.+.+.+.+.",
"+.+.+.+.+.+.+.+.+.+.+.+.+.+.+.+.+.+.+.+.+.+.+.#.^ d w w w w w w 0 w w w @ x #.+.+.+.+.+.+.+.+.+.+.+.+.+.+.+.+.+.+.+.+.+.+.+.+.+.",
"+.+.+.+.+.+.+.+.+.+.+.+.+.+.+.+.+.+.+.+.+.+.+.#.` i w w w w w w w w w 0 $ _ #.+.+.+.+.+.+.+.+.+.+.+.+.+.+.+.+.+.+.+.+.+.+.+.+.+.",
"+.+.+.+.+.+.+.+.+.+.+.+.+.+.+.+.+.+.+.+.+.+.+.#..., = : 0 0 0 0 0 - - % X ..#.+.+.+.+.+.+.+.+.+.+.+.+.+.+.+.+.+.+.+.+.+.+.+.+.+."
};
