/* XPM */
static char *_5acb12fbb074eebd9cf82a1b6a4b1abnDOhkV6HU4R0MOpE[] = {
/* columns rows colors chars-per-pixel */
"64 64 226 2 ",
"   c #355433",
".  c #4C5938",
"X  c #515034",
"o  c #7E5039",
"O  c #6B5A2E",
"+  c #5B6437",
"@  c #4A7C3F",
"#  c #66683B",
"$  c #737039",
"%  c #4A3D5B",
"&  c #395646",
"*  c #3B5453",
"=  c #3D4E50",
"-  c #3B6843",
";  c #3A774B",
":  c #3A7655",
">  c #2F7354",
",  c #474B47",
"<  c #544A4B",
"1  c #445449",
"2  c #4C4E53",
"3  c #574E57",
"4  c #495757",
"5  c #505C5A",
"6  c #555146",
"7  c #6A594B",
"8  c #625F56",
"9  c #775558",
"0  c #556456",
"q  c #5A7457",
"w  c #696543",
"e  c #796445",
"r  c #697846",
"t  c #736852",
"y  c #495969",
"u  c #925539",
"i  c #AF5433",
"p  c #8B792A",
"a  c #8C6733",
"s  c #8E7132",
"d  c #A5703A",
"f  c #C6453C",
"g  c #D84A3C",
"h  c #E35936",
"j  c #E8703B",
"k  c #8C3845",
"l  c #AD3F4C",
"z  c #B93C4C",
"x  c #D13B48",
"c  c #D33454",
"v  c #894F49",
"b  c #945F4F",
"n  c #9E474D",
"m  c #A14A45",
"M  c #BF4F41",
"N  c #966D4D",
"B  c #AA654C",
"V  c #B77044",
"C  c #CC434C",
"Z  c #C64548",
"A  c #D34441",
"S  c #D94748",
"D  c #D9514A",
"F  c #D34E51",
"G  c #ED5B54",
"H  c #DF784F",
"J  c #C26E52",
"K  c #DF6B5C",
"L  c #FA6D4A",
"P  c #F7744B",
"I  c #FF6D59",
"U  c #EC7F55",
"Y  c #EA7758",
"T  c #FD7D55",
"R  c #F8775B",
"E  c #FB7657",
"W  c #E5724D",
"Q  c #E75369",
"!  c #D67660",
"~  c #FF7763",
"^  c #FF7071",
"/  c #279D3F",
"(  c #36943C",
")  c #298A44",
"_  c #328B4D",
"`  c #398745",
"'  c #2E9243",
"]  c #289948",
"[  c #34954C",
"{  c #339B4C",
"}  c #399749",
"|  c #2B8854",
" . c #338A53",
".. c #3E8656",
"X. c #2E9B54",
"o. c #359951",
"O. c #3C9D55",
"+. c #389658",
"@. c #37A347",
"#. c #3AA653",
"$. c #35AC4F",
"%. c #409653",
"&. c #44955D",
"*. c #448146",
"=. c #48A44D",
"-. c #48A658",
";. c #46B151",
":. c #5AA145",
">. c #738263",
",. c #55B564",
"<. c #6EA876",
"1. c #6ED272",
"2. c #928618",
"3. c #B6980D",
"4. c #A0891F",
"5. c #AE9B12",
"6. c #B08E17",
"7. c #B8A41D",
"8. c #9D8625",
"9. c #888336",
"0. c #918330",
"q. c #BC8E2E",
"w. c #AA9A2B",
"e. c #A58732",
"r. c #B09529",
"t. c #C08E11",
"y. c #D89F1E",
"u. c #C2951E",
"i. c #C6A70C",
"p. c #DAA90B",
"a. c #DBB503",
"s. c #DCBC00",
"d. c #DEB30B",
"f. c #DBBA0A",
"g. c #D5BD09",
"h. c #CFAA15",
"j. c #C9A618",
"k. c #D7A817",
"l. c #C9B813",
"z. c #DEB410",
"x. c #DCBB13",
"c. c #D7BC17",
"v. c #CEB803",
"b. c #EAAD0B",
"n. c #E5AB06",
"m. c #F4AE07",
"M. c #E5B603",
"N. c #EBB404",
"B. c #E3BA04",
"V. c #ECBB01",
"C. c #E7B70D",
"Z. c #EBB40B",
"A. c #E4BA0C",
"S. c #EABB0C",
"D. c #F4B50B",
"F. c #F6BB09",
"G. c #E3AE1A",
"H. c #E9AE18",
"J. c #F5AF11",
"K. c #E3B413",
"L. c #ECB514",
"P. c #EBBB13",
"I. c #E4B619",
"U. c #EAB51A",
"Y. c #E6BA18",
"T. c #F3B513",
"R. c #F5B416",
"E. c #C29B26",
"W. c #CFAB21",
"Q. c #E8B924",
"!. c #F5B226",
"~. c #E9AE24",
"^. c #DFC00E",
"/. c #DDC118",
"(. c #E9C107",
"). c #F1C005",
"_. c #E8C014",
"`. c #BE926B",
"'. c #D99356",
"]. c #CA8D50",
"[. c #ED8048",
"{. c #FB8649",
"}. c #F59C40",
"|. c #FC8452",
" X c #F7865A",
".X c #FC845F",
"XX c #FF8B5B",
"oX c #F58C56",
"OX c #EC9850",
"+X c #F89957",
"@X c #EC8B56",
"#X c #E9A654",
"$X c #FFA65D",
"%X c #FEAE5F",
"&X c #F4AB5A",
"*X c #EAB85C",
"=X c #F7BA58",
"-X c #FB8666",
";X c #FB9A68",
":X c #F0906C",
">X c #FCA565",
",X c #FEAC62",
"<X c #FFA46C",
"1X c #F8AE64",
"2X c #F4BB66",
"3X c #FAB765",
"4X c #FEAD74",
"5X c #FFB475",
"6X c #FFBD72",
"7X c #FBBA7C",
"8X c #E9B562",
"9X c #ECC172",
"0X c #FDC778",
"qX c #F5C36E",
"wX c #F9F47F",
"eX c #7CDE89",
"rX c #90DC8F",
"tX c #A7EA9B",
"yX c #8DE9A7",
"uX c #A4FBB4",
"iX c #F4D4A5",
"pX c #FBE5BC",
"aX c #ADFDC2",
"sX c #F5DBDC",
"dX c #FFF2D2",
"fX c #FFECE1",
/* pixels */
"C.C.C.C.C.C.C.C.C.C.C.C.C.C.C.C.C.C.C.C.C.C.C.C.C.C.C.C.C.C.C.C.C.C.C.C.C.C.C.C.C.C.C.C.C.C.C.C.C.C.C.C.C.C.C.C.C.C.C.C.C.C.C.C.",
"C.C.C.C.C.C.C.C.C.C.C.C.C.C.C.C.C.C.C.C.C.C.C.C.C.C.C.C.C.C.C.C.C.C.C.C.C.C.C.C.C.C.C.C.C.C.C.C.C.C.C.C.C.C.C.C.C.C.C.C.C.C.C.C.",
"C.C.C.C.C.C.C.C.C.C.C.C.C.C.C.C.C.C.C.C.C.C.C.C.C.C.C.C.C.C.C.C.C.C.C.C.C.C.C.C.C.C.C.C.C.C.C.C.C.C.C.C.C.C.C.C.C.C.C.C.C.C.C.C.",
"C.C.C.C.C.C.C.C.C.C.C.C.C.C.C.C.C.C.C.C.C.C.C.C.C.C.C.C.C.C.C.C.C.C.C.C.C.C.C.C.C.C.C.C.C.C.C.C.C.C.C.C.C.C.C.C.C.C.C.C.C.C.C.C.",
"C.C.C.C.C.C.C.C.C.C.C.C.C.C.C.C.C.C.C.C.C.C.C.C.C.C.C.C.C.C.C.C.C.C.C.C.C.C.C.C.C.C.C.C.C.C.C.C.C.C.C.C.C.C.C.C.C.C.C.C.C.C.C.C.",
"C.C.C.C.C.C.C.C.C.C.C.C.C.C.C.C.C.C.C.C.C.C.C.C.C.C.C.C.C.C.C.C.C.C.C.C.C.C.C.C.C.C.C.C.C.C.C.C.C.C.C.C.C.C.C.C.C.C.C.C.C.C.C.C.",
"C.C.C.C.C.C.C.C.C.C.C.C.C.C.C.C.C.C.C.C.C.C.C.C.C.C.C.C.C.C.C.C.C.C.C.C.C.C.C.C.C.C.C.C.C.C.C.C.C.C.C.C.C.C.C.C.C.C.C.C.C.C.C.C.",
"C.C.C.C.C.C.C.C.C.C.C.C.C.C.C.C.C.C.C.C.C.C.C.C.C.C.C.C.C.C.C.C.C.C.C.C.C.C.C.C.C.C.C.C.C.C.C.C.C.C.C.C.C.C.C.C.C.C.C.C.C.C.C.C.",
"C.C.C.C.C.C.C.C.C.C.C.C.C.C.C.C.C.C.C.C.C.C.C.C.C.C.C.C.C.C.C.C.C.C.C.C.C.C.C.C.C.C.C.C.C.C.C.C.C.C.C.C.C.C.C.C.C.C.C.C.C.C.C.C.",
"C.C.C.C.C.C.C.C.C.C.C.C.C.C.C.C.C.C.C.C.C.C.C.C.C.C.C.C.C.C.C.C.C.C.C.C.C.C.C.C.C.C.C.C.C.C.C.C.C.C.C.C.C.C.C.C.C.C.C.C.C.C.C.C.",
"C.C.C.C.C.C.C.C.C.C.C.C.C.C.C.C.C.C.C.C.C.C.C.C.C.C.C.C.C.C.C.C.C.C.C.C.C.C.C.C.C.C.C.C.C.C.C.C.C.C.C.C.C.C.C.C.C.C.C.C.C.C.C.C.",
"C.C.C.C.C.C.C.C.C.C.C.C.C.C.C.C.C.C.C.C.C.C.C.C.C.C.C.C.C.C.C.C.C.C.C.C.C.C.C.C.C.C.C.C.C.C.C.C.C.C.C.C.C.C.C.C.C.C.C.C.C.C.C.C.",
"C.C.C.C.C.C.C.C.C.C.C.C.C.C.C.C.C.C.C.C.C.C.C.C.C.C.C.C.C.C.C.C.C.C.C.C.C.C.C.C.C.C.C.C.C.C.C.C.C.C.C.C.C.C.C.C.C.C.C.C.C.C.C.C.",
"C.C.C.C.C.C.C.C.C.C.C.C.C.C.C.C.C.C.C.C.C.C.C.C.C.C.C.C.C.C.C.C.C.C.C.C.C.C.C.C.C.C.C.C.C.C.C.C.C.C.C.C.C.C.C.C.C.C.C.C.C.C.C.C.",
"C.C.C.C.C.C.C.C.C.C.C.C.C.C.C.C.C.C.C.C.C.C.C.C.C.C.C.C.C.C.C.C.C.C.C.C.C.C.C.C.C.C.C.C.C.C.C.C.C.C.C.C.C.C.C.C.C.C.C.C.C.C.C.C.",
"C.C.C.C.C.C.C.C.C.C.C.C.C.C.C.C.C.C.C.C.C.C.C.C.C.C.C.C.C.C.C.C.C.C.C.C.C.C.C.C.C.C.C.C.C.C.C.C.C.C.C.C.C.C.C.C.C.C.C.C.C.C.C.C.",
"C.C.C.C.C.C.C.C.C.C.C.C.C.C.C.C.C.C.C.C.C.C.C.C.C.C.C.C.C.C.C.C.f.m.).a.A.C.Z.L.P.a.Y.Z.z.(.N.M.C.C.C.C.C.C.C.C.C.C.C.C.C.C.C.C.",
"C.C.C.C.C.C.C.C.C.C.C.C.C.C.C.C.C.C.C.C.C.C.C.C.C.C.C.C.C.C.C.C.L.!.5.2 5 $ v.9., w.a.Z.R.K.f.U.C.C.C.C.C.C.C.C.C.C.C.C.C.C.C.C.",
"C.C.C.C.C.C.C.C.C.C.C.C.C.C.C.C.C.C.C.C.C.C.C.C.C.C.C.C.C.C.C.C.A.5.q aXeX@ , <.uX>.q.W.h.F.A.L.C.C.C.C.C.C.C.C.C.C.C.C.C.C.C.C.",
"C.C.C.C.C.C.C.C.C.C.C.C.C.C.C.C.C.C.C.C.C.C.C.C.C.C.C.C.C.C.C.C.g., } ] #. .: } #.- 7.$ 5 k.N.N.C.C.C.C.C.C.C.C.C.C.C.C.C.C.C.C.",
"C.C.C.C.C.C.C.C.C.C.C.C.C.C.C.C.C.C.C.C.C.C.C.C.C.C.C.C.C.C.C.C.j.# > ] ( +.=.+.#.=.r ` yXr l.Z.C.C.C.C.C.C.C.C.C.C.C.C.C.C.C.C.",
"C.C.C.C.C.C.C.C.C.C.C.C.C.C.C.C.C.C.C.C.C.C.C.C.C.C.C.C.C.C.C.C.(.h.y `  .,.1.[ X.@.( @.;.:.0 M.C.C.C.C.C.C.C.C.C.C.C.C.C.C.C.C.",
"C.C.C.C.C.C.C.C.C.C.C.C.C.C.C.C.C.C.C.C.C.C.C.C.C.C.C.C.C.C.C.C.H.L.5.1 > -.=.#.X.{ o.#.yXtX2 U.C.C.C.C.C.C.C.C.C.C.C.C.C.C.C.C.",
"C.C.C.C.C.C.C.C.C.C.C.C.C.C.C.C.C.C.C.C.C.C.C.C.C.C.C.C.C.C.C.C.P.a.Y.3.1 o.O.{ ' +.rX,.-.0 j.M.C.C.C.C.C.C.C.C.C.C.C.C.C.C.C.C.",
"C.C.C.C.C.C.C.C.C.C.C.C.C.C.C.C.C.C.C.C.C.C.C.C.C.K.N.Q.d.Z.s.Q.A.U.i.- ] O.] ` _ { $.@.' X.& T.C.C.C.C.C.C.C.C.C.C.C.C.C.C.C.C.",
"C.C.C.C.C.C.C.C.C.C.C.C.C.C.C.C.C.C.C.C.C.C.C.C.K.L.Y.b.B.P.D.k.p.K.7.* &.@.+.X.+.' {  .%.rX8 Z.C.C.C.C.C.C.C.C.C.C.C.C.C.C.C.C.",
"C.C.C.C.C.C.C.C.C.C.C.C.C.C.C.C.C.C.C.C.C.C.C.C.d.N.L.V.Q.h.h.+ 3 3   { { _ ) [ _ ` _ +.O.4 j.Z.C.C.C.C.C.C.C.C.C.C.C.C.C.C.C.C.",
"C.C.C.C.C.C.C.C.C.C.C.C.C.C.C.C.C.C.C.C.C.C.C.C.P.g.s.S.N.t 7 Y |.].%.` -.{ +.|  ./ ] ] ' [ 1 V.C.C.C.C.C.C.C.C.C.C.C.C.C.C.C.C.",
"C.C.C.C.C.C.C.C.C.C.C.C.C.C.C.C.C.C.C.C.C.C.C.C.n._.H.T.9.].:XY oX>XY i ; ) %.( _ *.: _ [ ) * d.C.C.C.C.C.C.C.C.C.C.C.C.C.C.C.C.",
"C.C.C.C.C.C.C.C.C.C.C.C.C.C.C.C.C.C.C.C.C.C.C.C.R.Z.K.s ! #X%X=XL ;X<XE b ' ; & . , * ; ) O.* !.C.C.C.C.C.C.C.C.C.C.C.C.C.C.C.C.",
"C.C.C.C.C.C.C.C.C.C.C.C.C.C.C.C.C.C.C.C.C.C.C.C.A.s.p J &X0X*X6X,X8X5X@XP u e I.h.k.h.0 ..  i.D.C.C.C.C.C.C.C.C.C.C.C.C.C.C.C.C.",
"C.C.C.C.C.C.C.C.C.C.C.C.C.C.C.C.C.C.C.C.C.C.C.C.N.N V oXXX=XfXwXL U =X3X|.G v 2.Z.c.D.p.+ % d.x.C.C.C.C.C.C.C.C.C.C.C.C.C.C.C.C.",
"C.C.C.C.C.C.C.C.C.C.C.C.C.C.C.C.I.a.S.C.M.C.c.D.e.B ,X3XE R >XdX6XP S {. XK m 9.C.C.C.C.C.C.C.C.C.C.C.C.C.C.C.C.C.C.C.C.C.C.C.C.",
"C.C.C.C.C.C.C.C.C.C.C.C.C.C.C.C.S.V.z.K._.K.N.d.p `.=X2X0XpX&X4X*X1XQ [.P A k e.C.C.C.C.C.C.C.C.C.C.C.C.C.C.C.C.C.C.C.C.C.C.C.C.",
"C.C.C.C.C.C.C.C.C.C.C.C.C.C.C.C.d.P.Y.V.d.d.F.4.b $XqX2XsX0X,X9X%XXXU C A f l 6.C.C.C.C.C.C.C.C.C.C.C.C.C.C.C.C.C.C.C.C.C.C.C.C.",
"C.C.C.C.C.C.C.C.C.C.C.C.C.C.C.C.P.V.K.L.S.K.G.e.B #X,X{.^ ,X6X=X%X-XE c C n e.a.C.C.C.C.C.C.C.C.C.C.C.C.C.C.C.C.C.C.C.C.C.C.C.C.",
"C.C.C.C.C.C.C.C.C.C.C.C.C.C.C.C.L.C.P.A.b.U.7.d -XT #X7X+Xh #X+X+XY S M w 8.m.C.C.C.C.C.C.C.C.C.C.C.C.C.C.C.C.C.C.C.C.C.C.C.C.C.",
"C.C.C.C.C.C.C.C.C.C.C.C.C.C.C.C.~.A.M.A.S.3.a :X5XiX:X,X*X;XG R ~ D f 7 M.L.P.K.C.C.C.C.C.C.C.C.C.C.C.C.C.C.C.C.C.C.C.C.C.C.C.C.",
"C.C.C.C.C.C.C.C.C.C.C.C.C.C.C.C.M.Z.L.d.E.s '.5XOX4X5X7X+XT U D g z w n.).D.f.D.C.C.C.C.C.C.C.C.C.C.C.C.C.C.C.C.C.C.C.C.C.C.C.C.",
"C.C.C.C.C.C.C.C.C.C.C.C.C.C.C.C.A.N.L._.w.o ;X+X=XW I oXT D S Z < # k.K.P.f.P.B.C.C.C.C.C.C.C.C.C.C.C.C.C.C.C.C.C.C.C.C.C.C.C.C.",
"C.C.C.C.C.C.C.C.C.C.C.C.C.C.C.C.Z.K._.3.9 .X2X>X.X Xh Z x Z 7 . C.C.C.C.C.C.C.C.C.C.C.C.C.C.C.C.C.C.C.C.C.C.C.C.C.C.C.C.C.C.C.C.",
"C.C.C.C.C.C.C.C.C.C.C.C.C.C.C.C.S.L.h.9 ;X}.W ;X|.G C Z 9 . y.R.C.C.C.C.C.C.C.C.C.C.C.C.C.C.C.C.C.C.C.C.C.C.C.C.C.C.C.C.C.C.C.C.",
"C.C.C.C.C.C.C.C.C.C.C.C.C.C.C.C.I.p.N XX&X>XH x Z Z v O j.M.Y.C.C.C.C.C.C.C.C.C.C.C.C.C.C.C.C.C.C.C.C.C.C.C.C.C.C.C.C.C.C.C.C.C.",
"C.C.C.C.C.C.C.C.C.C.C.C.C.C.C.C.B.G.< j -X|.P g m e u.S.A.D.A.M.C.C.C.C.C.C.C.C.C.C.C.C.C.C.C.C.C.C.C.C.C.C.C.C.C.C.C.C.C.C.C.C.",
"C.C.C.C.C.C.C.C.C.C.C.C.C.C.C.C.a.w '.>XW C z 4 8.I.K._.d.L.S.M.C.C.C.C.C.C.C.C.C.C.C.C.C.C.C.C.C.C.C.C.C.C.C.C.C.C.C.C.C.C.C.C.",
"C.C.C.C.C.C.C.C.C.C.C.C.C.C.C.C.Y.X >XA i 6 a h.d.L.B.N.M.c.K.Z.C.C.C.C.C.C.C.C.C.C.C.C.C.C.C.C.C.C.C.C.C.C.C.C.C.C.C.C.C.C.C.C.",
"C.C.C.C.C.C.C.C.C.C.C.C.C.C.C.C.J.& , , e l.K.A.F.n.S.Y.K.F.C./.C.C.C.C.C.C.C.C.C.C.C.C.C.C.C.C.C.C.C.C.C.C.C.C.C.C.C.C.C.C.C.C.",
"C.C.C.C.C.C.C.C.C.C.C.C.C.C.C.C.S.U.f.U.Z.b.P.B.z.P.C.C.Z.U.C.N.C.C.C.C.C.C.C.C.C.C.C.C.C.C.C.C.C.C.C.C.C.C.C.C.C.C.C.C.C.C.C.C.",
"C.C.C.C.C.C.C.C.C.C.C.C.C.C.C.C.C.C.C.C.C.C.C.C.C.C.C.C.C.C.C.C.C.C.C.C.C.C.C.C.C.C.C.C.C.C.C.C.C.C.C.C.C.C.C.C.C.C.C.C.C.C.C.C.",
"C.C.C.C.C.C.C.C.C.C.C.C.C.C.C.C.C.C.C.C.C.C.C.C.C.C.C.C.C.C.C.C.C.C.C.C.C.C.C.C.C.C.C.C.C.C.C.C.C.C.C.C.C.C.C.C.C.C.C.C.C.C.C.C.",
"C.C.C.C.C.C.C.C.C.C.C.C.C.C.C.C.C.C.C.C.C.C.C.C.C.C.C.C.C.C.C.C.C.C.C.C.C.C.C.C.C.C.C.C.C.C.C.C.C.C.C.C.C.C.C.C.C.C.C.C.C.C.C.C.",
"C.C.C.C.C.C.C.C.C.C.C.C.C.C.C.C.C.C.C.C.C.C.C.C.C.C.C.C.C.C.C.C.C.C.C.C.C.C.C.C.C.C.C.C.C.C.C.C.C.C.C.C.C.C.C.C.C.C.C.C.C.C.C.C.",
"C.C.C.C.C.C.C.C.C.C.C.C.C.C.C.C.C.C.C.C.C.C.C.C.C.C.C.C.C.C.C.C.C.C.C.C.C.C.C.C.C.C.C.C.C.C.C.C.C.C.C.C.C.C.C.C.C.C.C.C.C.C.C.C.",
"C.C.C.C.C.C.C.C.C.C.C.C.C.C.C.C.C.C.C.C.C.C.C.C.C.C.C.C.C.C.C.C.C.C.C.C.C.C.C.C.C.C.C.C.C.C.C.C.C.C.C.C.C.C.C.C.C.C.C.C.C.C.C.C.",
"C.C.C.C.C.C.C.C.C.C.C.C.C.C.C.C.C.C.C.C.C.C.C.C.C.C.C.C.C.C.C.C.C.C.C.C.C.C.C.C.C.C.C.C.C.C.C.C.C.C.C.C.C.C.C.C.C.C.C.C.C.C.C.C.",
"C.C.C.C.C.C.C.C.C.C.C.C.C.C.C.C.C.C.C.C.C.C.C.C.C.C.C.C.C.C.C.C.C.C.C.C.C.C.C.C.C.C.C.C.C.C.C.C.C.C.C.C.C.C.C.C.C.C.C.C.C.C.C.C.",
"C.C.C.C.C.C.C.C.C.C.C.C.C.C.C.C.C.C.C.C.C.C.C.C.C.C.C.C.C.C.C.C.C.C.C.C.C.C.C.C.C.C.C.C.C.C.C.C.C.C.C.C.C.C.C.C.C.C.C.C.C.C.C.C.",
"C.C.C.C.C.C.C.C.C.C.C.C.C.C.C.C.C.C.C.C.C.C.C.C.C.C.C.C.C.C.C.C.C.C.C.C.C.C.C.C.C.C.C.C.C.C.C.C.C.C.C.C.C.C.C.C.C.C.C.C.C.C.C.C.",
"C.C.C.C.C.C.C.C.C.C.C.C.C.C.C.C.C.C.C.C.C.C.C.C.C.C.C.C.C.C.C.C.C.C.C.C.C.C.C.C.C.C.C.C.C.C.C.C.C.C.C.C.C.C.C.C.C.C.C.C.C.C.C.C.",
"C.C.C.C.C.C.C.C.C.C.C.C.C.C.C.C.C.C.C.C.C.C.C.C.C.C.C.C.C.C.C.C.C.C.C.C.C.C.C.C.C.C.C.C.C.C.C.C.C.C.C.C.C.C.C.C.C.C.C.C.C.C.C.C.",
"C.C.C.C.C.C.C.C.C.C.C.C.C.C.C.C.C.C.C.C.C.C.C.C.C.C.C.C.C.C.C.C.C.C.C.C.C.C.C.C.C.C.C.C.C.C.C.C.C.C.C.C.C.C.C.C.C.C.C.C.C.C.C.C.",
"C.C.C.C.C.C.C.C.C.C.C.C.C.C.C.C.C.C.C.C.C.C.C.C.C.C.C.C.C.C.C.C.C.C.C.C.C.C.C.C.C.C.C.C.C.C.C.C.C.C.C.C.C.C.C.C.C.C.C.C.C.C.C.C.",
"C.C.C.C.C.C.C.C.C.C.C.C.C.C.C.C.C.C.C.C.C.C.C.C.C.C.C.C.C.C.C.C.C.C.C.C.C.C.C.C.C.C.C.C.C.C.C.C.C.C.C.C.C.C.C.C.C.C.C.C.C.C.C.C.",
"C.C.C.C.C.C.C.C.C.C.C.C.C.C.C.C.C.C.C.C.C.C.C.C.C.C.C.C.C.C.C.C.C.C.C.C.C.C.C.C.C.C.C.C.C.C.C.C.C.C.C.C.C.C.C.C.C.C.C.C.C.C.C.C."
};
