/* XPM */
static char *_a61a607d92b41bb8e6694573a4b4b1cooRkn2zSyDy0y9Xi[] = {
/* columns rows colors chars-per-pixel */
"50 50 10 1 ",
"  c #78D42D",
". c #7CD52C",
"X c #B2E51E",
"o c #B5E61D",
"O c #8FDC27",
"+ c #80D72B",
"@ c #84D72A",
"# c #87D929",
"$ c #93DC26",
"% c #AAE320",
/* pixels */
"oooooooooooooooooooooooooooooooooooooooooooooooooo",
"oooooooooooooooooooooooooooooooooooooooooooooooooo",
"oooooooooooooooooooooooooooooooOoooooooooooooooooo",
"oooooooooooooOoooooooOooooooooo oooooooooooooo$Xoo",
"ooooooooooooo.@ooooo@.ooooooooo ooooooooOooooo%@oo",
"oooooooOoooooo ooooo oooooooooo oooooooo.@ooooo oo",
"ooooooo+oooooo ooooo ooo##ooooo ooooooooo ooooo+oo",
"oooooooooooooo ooooo oooooooooo+ooooooooo oooooooo",
"oooooooooooooo ooooo.@ooooooooooooooooooo ooOooooo",
"oooooooooooooo.#ooooo+ooooooooooooooooooo.@o+ooooo",
"oooooOooooOooooooooooooooooooooooooOoooooo ooooooo",
"ooooo oooo ooooooooooooooooooOooooo oooooo+ooooooo",
"ooooo+oooo oooooooooooooooooo+ooooo oooooooooooooo",
"oooooooooo ooooooooOoooOoooooOooooo+oooooooooooooo",
"oooooooooo oooooooo ooo ooooo oooooooooooooooooooo",
"oooooooooo+ooooOooo+ooo ooooo+oooooooooooooooooooo",
"ooooooooooooooo ooooooo.@ooooooooooooooooooooooooo",
"ooooooooooooooo+oooooooo ooooooooooooooooooooooooo",
"oooooOoooooooooooooooooo+ooooo##oooooooooooooooooo",
"ooooo+oooooooooooooooooooooooooOooooooooooOoOooooo",
"oooooOooooooooooooooooooooooooo+oooooooooo o.@oooo",
"ooooo ooooOooooOoooooooooooooooOoooooooooo+oo oooo",
"ooooo oooo oooo+ooooooooooooooo oooooOooooooo oooo",
"ooooo+oooo ooooOooooooooooOoooo ooooo+ooooooo oooo",
"oooooooooo oooo oooooooooo+oooo ooooooooooooo+oooo",
"oooooooooo.#ooo+ooooooooooooooo+oooooooooooooooooo",
"ooooooooooooooooooooOoooooooooooooooooOooooooooooo",
"oooooooooooooooooooo+ooooooooooooooooo+ooooOoooooo",
"ooooooooooooooooooooOoooooooooooooooooooooo oooooo",
"oooooooooooooo@#oooo+oooooOoooooooooooooooo+oooooo",
"oooooOoooooooo ooooooooooo oooooOooooooooooooooooo",
"ooooo ooo@#ooo ooooooooooo+ooooo+ooooooooooooooooo",
"ooooo ooo+oooo+oooooooooooooooooooooooooooooooOooo",
"ooooo oooooooooooooooooooooOoooooooooooooooooo ooo",
"ooooo+ooooooooooooOooooooo@.oooooooooooooooooo ooo",
"ooooooooooooooooo@.ooooooo ooooOooooooOooooooo ooo",
"oooooooooooooooo#.oooooooX.ooo@ oooooo+ooooooo ooo",
"ooooooooooooooooooooooooo@%ooo+oooooooOooooOoo ooo",
"ooooooooooooooooooooooooo+oooooooooooo oooo oo ooo",
"oooooooooooooooooooooooooooooooooooooo oooo+oo ooo",
"ooooooooOoooooooooooooooooooooooooooo@.ooooooo ooo",
"oooooooo.@oooooooooo@#ooooooooooooooo+oooooooo+ooo",
"ooOoooooo oooooooo@ .oo#.ooooooooooooooooooooooooo",
"oo oooooo+ooOoooOo+ooooo+oooooo@#ooooooooooooooooo",
"oo.Xoooooooo+ooo+oooooooooooooo ooooooOooooooooooo",
"oo%@oooooooooooooooooooooooooo@.oooooo+oooooOooooo",
"ooo+ooo#@oooooooooooooooooooo#.ooooooooooooo+ooooo",
"oooooooo.@oooooooooooooooooooooooooooooooooooooooo",
"ooooooooo. #oooooooooooooooooooooooooooooooooooooo",
"oooooooooooooooooooooooooooooooooooooooooooooooooo"
};
