/* XPM */
static char *floor[] = {
/* columns rows colors chars-per-pixel */
"64 64 53 1 ",
"  c #E7B70D",
". c #E6B70D",
"X c #EAB90D",
"o c #EBBA0D",
"O c #ECBB0D",
"+ c #E9B90D",
"@ c #F3C10D",
"# c #F7C40E",
"$ c #F8C40E",
"% c #F2C00D",
"& c #E9B80D",
"* c #E8B80D",
"= c #E8B70D",
"- c #EABA0D",
"; c #F3C10E",
": c #F0BE0D",
"> c #F1BF0D",
", c #F8C50E",
"< c #F7C30E",
"1 c #F6C30E",
"2 c #F4C20D",
"3 c #EEBC0D",
"4 c #EEBD0D",
"5 c #E6B60D",
"6 c #EFBD0D",
"7 c #EFBE0D",
"8 c #F0BE0E",
"9 c #F1BF0E",
"0 c #F3C00E",
"q c #F2C00E",
"w c #EEBD0E",
"e c #F4C10E",
"r c #F3C00D",
"t c #EBBA0E",
"y c #F6C30D",
"u c #F5C30E",
"i c #EFBD0E",
"p c #F0BF0D",
"a c #F7C40D",
"s c #F4C20E",
"d c #F5C20E",
"f c #EDBC0D",
"g c #ECBA0D",
"h c #EFBE0E",
"j c #F2BF0E",
"k c #EBBB0D",
"l c #F6C40E",
"z c #F7C30D",
"x c #F5C20D",
"c c #ECBB0E",
"v c #EDBB0D",
"b c #F5C30D",
"n c gray100",
/* pixels */
"                                                                ",
"                                                                ",
"                        ...........                             ",
"                       XoOOOOOOOOOoX                            ",
"                      +@#$$$$$$$$$#%&******=                    ",
"                     -;#:ooooooooo>,<1<<<123=                   ",
"                     +34+5.......5X67777778900000q:X 55.        ",
"                      ..           555555.*w;eeeeer:443O&       ",
"                                                 =t;###y4*      ",
"                                                   *+&-u1i      ",
"                  ..............                       oOX      ",
"          .55555+6>999999999999>4&5555.                ..       ",
"         -OOOOOOpa11111111111111a:OOOOO+                        ",
"        -2#$$$$$$s+ ********** +d$$$$$ap                        ",
"       os#4X-----+              X-----0q                        ",
"       +ff&5.....                .....og                        ",
"        ..                                                      ",
"                                                                ",
"                                                                ",
"                                                                ",
"                              Xh9j99999999999999999j:O          ",
"                              -qdddddddddddddddddddd#2k=        ",
"                                                    7l;+        ",
"                                                    *X+         ",
"                                    .555555.                    ",
"                        ..........5*f6:777:6O                   ",
"                       +ooooooooooo3y<1<<<1#r=                  ",
"        **************+@#$$$$$$$$$$$1o*****:0=                  ",
"       o;11111111111111,:oOOOOOOOOOko=     &X                   ",
"       +6::::::::::::::6+5...........                           ",
"        ................                                        ",
"                                                                ",
"                                                                ",
"                                              ....              ",
"                                      .....5*3::::4&            ",
"                                     XoOOOOo6z11110X            ",
"                             =******+r#$$$$$$1- ***             ",
"                            .fx1<<<1<,poooooo-                  ",
"                     5 4%000011:777776X5.....                   ",
"                    +f6y1eeee;4.55555.                          ",
"                   *:a#1O.                                      ",
"                   9#;+&=                                       ",
"                   -O-         .......5-%dddddde3               ",
"                    .    .555o799999999e#q9999j8O               ",
"                        XOOOO%a11111111dq*5                     ",
"                   **&&X>y$$$$q*=*******                        ",
"                   :y#<18c----+                                 ",
"            .55O%;e#e664- ....                                  ",
"        ..5+f6621;;qO555                                        ",
"      &X--X:a##18                                               ",
"      i1$$$,;+*&*                                               ",
"      +OOOOO-                                                   ",
"       .5555                     555 f>j9999999j>f 555          ",
"                                oOfvfb1ddddddddd1y3vfvo*        ",
"                             **o2#$$$#3         f#$$$#;+        ",
"                             4x#,4+XXX*         *XXXXX+         ",
"                         .*:;#u4f&5                             ",
"                         +:aeq3.5                               ",
"                         OesX5                                  ",
"                          **                                    ",
"                                                                ",
"                                                                ",
"                                                                ",
"                                                                "
};
