/* XPM */
static char *_8191_8d6f099566c017efb3fe80738ea10841abfb7d5ebf44c0dae3e5a58131fbecbf[] = {
/* columns rows colors chars-per-pixel */
"64 64 251 2 ",
"   c #3C1C00",
".  c #371800",
"X  c #2D0900",
"o  c #3C2101",
"O  c #3C2207",
"+  c #431E01",
"@  c #4A1E02",
"#  c #451A04",
"$  c #442301",
"%  c #4B2402",
"&  c #442901",
"*  c #4C2B03",
"=  c #45250B",
"-  c #4B250B",
";  c #4B2A0C",
":  c #452B0C",
">  c #532C02",
",  c #592E03",
"<  c #522C0B",
"1  c #592D0B",
"2  c #532603",
"3  c #4C3209",
"4  c #543302",
"5  c #5B3303",
"6  c #54320C",
"7  c #5D330C",
"8  c #5A3A08",
"9  c #4B2C13",
"0  c #4C2B1A",
"q  c #472914",
"w  c #542C19",
"e  c #552B14",
"r  c #4C3115",
"t  c #543214",
"y  c #5C3314",
"u  c #5B3A14",
"i  c #5C341A",
"p  c #5D3B1C",
"a  c #55341B",
"s  c #633C03",
"d  c #62350C",
"f  c #633B0C",
"g  c #69360B",
"h  c #733B08",
"j  c #633513",
"k  c #653B14",
"l  c #6C3C15",
"z  c #633B1B",
"x  c #6B3C1B",
"c  c #663518",
"v  c #713D12",
"b  c #773D19",
"n  c #5E3C21",
"m  c #4F2624",
"M  c #633B21",
"N  c #693B22",
"B  c #703D20",
"V  c #634200",
"C  c #6B4C01",
"Z  c #694509",
"A  c #744909",
"S  c #6D5406",
"D  c #775605",
"F  c #6B4214",
"G  c #64431C",
"H  c #6A4619",
"J  c #744514",
"K  c #7A4413",
"L  c #7B4C15",
"P  c #74431C",
"I  c #7A441A",
"U  c #754A1C",
"Y  c #7B4C1C",
"T  c #724E14",
"R  c #775619",
"E  c #6B4422",
"W  c #6C4828",
"Q  c #724423",
"!  c #744B23",
"~  c #7B4C23",
"^  c #7C4E2A",
"/  c #774826",
"(  c #7C5223",
")  c #7A5628",
"_  c #6D5332",
"`  c #7A5936",
"'  c #754831",
"]  c #7B643C",
"[  c #6E5212",
"{  c #7B6543",
"}  c #824C14",
"|  c #834B1C",
" . c #84531B",
".. c #8B5819",
"X. c #935C19",
"o. c #805905",
"O. c #8B6517",
"+. c #936314",
"@. c #94631B",
"#. c #996718",
"$. c #997618",
"%. c #8F670B",
"&. c #A57D0A",
"*. c #A47C15",
"=. c #814D23",
"-. c #844F29",
";. c #855324",
":. c #8B5324",
">. c #865A24",
",. c #8C5A22",
"<. c #83542A",
"1. c #845C2B",
"2. c #8B5D2B",
"3. c #8D562A",
"4. c #935D24",
"5. c #965A28",
"6. c #8C5C35",
"7. c #865E37",
"8. c #955E33",
"9. c #8C6424",
"0. c #8C632C",
"q. c #876926",
"w. c #936323",
"e. c #9A6423",
"r. c #936925",
"t. c #93642B",
"y. c #9B632C",
"u. c #996A29",
"i. c #9A7628",
"p. c #88663A",
"a. c #946334",
"s. c #94643C",
"d. c #9B643B",
"f. c #986835",
"g. c #987937",
"h. c #A56B28",
"j. c #AC732D",
"k. c #A46C34",
"l. c #AA6D3B",
"z. c #A66C3A",
"x. c #A87737",
"c. c #B37A3C",
"v. c #BD7C3D",
"b. c #B27638",
"n. c #B26E35",
"m. c #C27E3E",
"M. c #896844",
"N. c #956945",
"B. c #8A714A",
"V. c #957748",
"C. c #A97546",
"Z. c #B57B43",
"A. c #BC7D44",
"S. c #B57A47",
"D. c #B47E54",
"F. c #A16843",
"G. c #C37E44",
"H. c #C27E4A",
"J. c #A9830D",
"K. c #AA8417",
"L. c #B48618",
"P. c #B7910F",
"I. c #A58133",
"U. c #AA8836",
"Y. c #BD823D",
"T. c #B58B37",
"R. c #B99536",
"E. c #AE8D2C",
"W. c #9D800B",
"Q. c #D3A81C",
"!. c #DDB519",
"~. c #D7AE12",
"^. c #E4B406",
"/. c #E6B905",
"(. c #E7B70D",
"). c #EAB50C",
"_. c #E5B90C",
"`. c #E9B90D",
"'. c #EAB806",
"]. c #E5B612",
"[. c #EAB512",
"{. c #E5B913",
"}. c #EABA12",
"|. c #E4B51B",
" X c #E4BA1B",
".X c #EABA1C",
"XX c #EAB51A",
"oX c #F3B610",
"OX c #C1853F",
"+X c #C59E3B",
"@X c #C69A2D",
"#X c #CCA525",
"$X c #D5AA29",
"%X c #DAB526",
"&X c #CBA535",
"*X c #DCB738",
"=X c #D3A837",
"-X c #E4B622",
";X c #E9BC23",
":X c #E4BB2B",
">X c #ECBD2C",
",X c #E5B723",
"<X c #EBBE32",
"1X c #E3BB3C",
"2X c #E8BB37",
"3X c #F1BE35",
"4X c #F0BC2A",
"5X c #CE9D1A",
"6X c #ECC125",
"7X c #EBC12C",
"8X c #E7C22C",
"9X c #EBC233",
"0X c #EDC33B",
"qX c #E5C237",
"wX c #F1C339",
"eX c #F1C327",
"rX c #BC8243",
"tX c #BD824B",
"yX c #B88546",
"uX c #B88557",
"iX c #B79656",
"pX c #B29149",
"aX c #B78D62",
"sX c #9E8640",
"dX c #C38344",
"fX c #C4834B",
"gX c #C8844A",
"hX c #C48A4B",
"jX c #C9874A",
"kX c #C58A52",
"lX c #C38B5A",
"zX c #C68653",
"xX c #C69755",
"cX c #CCA74B",
"vX c #DAB64A",
"bX c #DBBA57",
"nX c #CBAB58",
"mX c #E5BA44",
"MX c #E1BC58",
"NX c #C88E63",
"BX c #D1986F",
"VX c #D5AF6C",
"CX c #E4BC6C",
"ZX c #DCC14E",
"AX c #EAC346",
"SX c #E9C557",
"DX c #F4CC59",
"FX c #ECC468",
"GX c #F1B78A",
"HX c #FDC69A",
"JX c #FCCFAA",
/* pixels */
"(.(.(.(.(.(.(.(.(.(.(.(.(.(.(.(.(.(.`.(.}.(.(.`.(.}.).(.(.(.(.(.[.[._._.(.(.).).(.].).).}.}..X{.{.{.{. X[.[.[.].].;X[..X;X;X[.).",
"(.(.(.(.(.(.(.(.(.(.(.(.(.(.(.(.(.(.(.(.(.(.(.(.(.(.(.(.(.(.(.}.[.(._._._.}.)._.(._.oX^.|.Q.#X#X#X$X X(.).`.(.].,X5X#X#X#X$X X^.",
"(.(.(.(.}.(.`.(.(.(.(.(.(.}.`.(.(.(.(.(.(.(.(.(.(.(.(.(.(.}.(.(.(.(._._.].(._./.(.).`..X1XD 2 > % D >X XoX[._. X%XV 4 5 % %.9X_.",
"(.(.(.(.(.(.(.(.`.(.(.}.(.(.(.(.(.(.(.(.(.(.(.(.(.(.(.(.(.(.(.(.(._.(.).[.[.(._._.(.|.3XCXs + q $ ) DX:X<X9X:X2XbX5   + $ q.9X_.",
"(.}.(.(.(.(.(.(.(.(.(.(.(.(.(.(.(.(.(.(.}.(.(.(.(.(.(.(.(.(.(.(.(.(.'.'.).[.[.]._.;X&X$.x.1.' n = G sXi.i.i.i.g.x.f.a.z + q.wX(.",
"(.(.(.(.}.(.(.(.(.(.(.(.(.(.(.(.`.(.}.(.(.(.(.(.}.(.(.(.(.(.(.(.].).'.'.).[.].]./.;XR.$ % 6.N.Q : : o $ o $ % + 8 aXNXG   q.:X'.",
"(.(.(.(.(.(.(.(.(.(.(.(.(.(.(.(.(.(.(.(.(.(.(.(.(.(.(.(.(.(.(.(.(.(.(.).(.].].].`.6XR.% > 8.s.b - w - < 2 > 2 > d uXuX! & i.0X_.",
"(.(.(.(.(.(.(.(.(.`.(.}.(.(.`.(.(.(.(.(.(.(.(.(.(.(.(.(.}.(.(.(.`.(.}._._._.].[._.6XR.* , C.NX=.- e n z ~ ;.| ;.~ 7 3 aXCXvX!./.",
"(.(.(.(.(.`.(.(.(.(.(.(.(.(.(.(.(.(.(.(.(.(.(.(.(.(.(.(.(.(.(.(.).].(.(.`._.).).[.0X+X% > D.NX^ $ t z j  .....,.! * + xXSX:X|._.",
"(.(.(.(.}.(.(.(.}.(.(.(.`.(.(.}.(.(.(.(.(.(.(.(.(.(.(.(.(.(.(.(.}.).]._.^._.'.[.$X&XU.> 5 C.uXH $ w M x K } } } Y d s yX@X5X.X).",
"`.(.(.(.(.(.(.(.(.(.(.(.(.(.(.(.}.(.(.(.(.(.}.(.(.(.(.(.(.(.).(.(._.]._.{.(.}.>X%.$ 6 z F 1.y.Z ; w N x g l c f v ,. .s + +.wX`.",
"(.}.(.(.(.(.(.(.(.(.(.(.(.(.(.(.(.(.(.(.(.(.(.(.(.(.}.(.(.(.}.(.^.}.`.(.(. X7XDXp.  9 z k 0.t.Z $ w N x c c j l v :.3.5   q.3X).",
"(.(.(.(.(.(.(.(.(.(.(.(.(.(.`.(.(.(.(.(.(.(.}.(.(.}.(.(.(.(.(.).).[.'.^.].%X*.C.) 6 j c l 0.u.L l z w e ;.3.=.v P H P 6 $ O.qX}.",
"(.(.(.(.(.(.(.(.(.(.(.(.(.(.(.(.(.(.(.(.(.(.(.(.(.(.(.(.(.(.(.(.oX).)._.}.$X> + 8 G c l l 3.u.} I P @ 2 3.y.:.I I c z 3 . O.9X`.",
"(.(.(.(.(.(.(.(.}.(.(.(.(.(.(.(.}.).(.(.(.(.(.`.(.(.(.(.(.(.(.(.).)._.(.{.$X5 * 7 l c l v 2.y...L P 1 , ,.e.5.| ~ x u u * $.8X/.",
"`.[.`.(.(.(.).(.(.(.(.(.(.(.(.}.(.(.(.).).`.(.(.(.(.(.(.).`.(.^.^.}.^. X X$Xs % U ;.-.j v S.A.OXZ.yXS.S.yXZ.A.A.C.2 : aXbXvX|.(.",
"[.[.(.(.(.(._./.(._.(.(._.(.(._.(.(._.(._.(.`.(.).).(.(.).).).).(.].XXXX6X%X5 % b 3.-.j l S.gXG.dXhXtXkXH.gXgXgXC.2 $ xXSX:X].}.",
"[.oX(._.}.)._.'.'.^.{._.(.(.(.}.(.}./.^.oX(.).`.[.).(.].(.(.'._.(.[.XX!.&X+X8 , } ..Q c J Z.dXdXdXv.k.l.H.H.m.Z.C.f s pX&XQ. X_.",
"_.`.^./.).`.).'.).^.`._.^._.{.(.(._._./.^.^.[.[.[.).(.(._._.!._./.[.>X*.2 y c k } ..~ g h S.dXG.gXl.K K n.H.Z.5.,.f.0.F % O.9X(.",
"^._._.!.-X3X3X3X3X3X3X>X_.^.(.|.,X>X9X9X<X;X[.).).)._.^._._.^.(.(.).4XL.@ m N x | 3.=.g h S.gXG.gXZ.P P H.H.l.3.,.9.a.d   q.qX/.",
"`./._.,X&X%.w.r.r.r.O.$.:X(.).XX#X%.O.r.O.&X;X(.).).).).!.].}.)._.(.eXJ.o 0 E z B B b b } S.H.fXgXl.y j x.fXBXVXBXZ.S.Z   q.8X`.",
")._..X1XhX$ % $   $ . V mX!.XX<XT.o $ o . T.qX{.XXXX[.|.|.-X|.XX|.%X<XK.o r n M N c b | } Z.fXH.gXk.% * z.tXBXHXGXuXzXJ   ) 9X/.",
"'.}.*XbXVX4 $ 6 6 ; : H ZXZXZXSXpX& 9 r o pXSX1X3X2XmX2XmXmX2X2XmXmXFXpXo r M M p z x | } Y.yXdXfXC.% * z.tXVXHXGXtXuXH o q.wX'.",
"'.;XK.V [ u G u p z M u S S D S G O a { ] R S D %.#.#.#.#.%.#.#.%.o.A ) p.] 9 - 9 < l 3.e.yXY.rXkXz.% * C.tXBXHXCXa.d.k o q.wX`.",
"}.wXi.# * z p z x x x p $ $   + & r r M.B.a O 4 A A h h h h h h A *   M V.{ q 9 ; $ f r.w.rXyXdXzXl.+ % C.H.BXJXGX6.6.y + q.3XoX",
"#X@Xa.2 u Q E c c k y z i i z G u = 9 M.M.E q i ^ =.5.5.5.y.5.:.<.t = _ N.p.< = u F L r.w.j.b.dXgXl.U | S.H.BXBXBXD.aXE . q.3X).",
"2 2 j c I ;.-.b b 7 @ w / ~ t.f.! $ r M.N.M = p s.y.A.zXH.gXD.d.s.y - W d.<.9 ; ( f.w.@.@.X.X.j.dXgXzXzXH.G.k.:.F.JXJX` . q.2X}.",
"0 0 i c v  .3.v c 7 - e / K @.r.R % < 7.N.N + M f.y.Z.gXG.H.H.8.s.u # N N.6.; ; R w.@.@.@.e.e.n.dXOXG.m.G.H.n.:.F.GXJX^ . q.DXqX",
"q - i x J ;.;.d , d x I 3...@.u.Q * 1 8.s.x @ N f.0.d.z.k.z.f.t.0.c - ' F.8.q @ y.yXj.+.@...K e.h.j.OXgXG.dXA.Z.C.S.pX0.T q.g.r.",
"9 ; 7 k v :.=., 2 j ~ =.w.r.+.r.! % 1 p.s.x # z f.0.a.8.a.8.a.t.f.1 # B N.6.0 q k.jXx.+.X.K K ,.@.h.Y.gXA.A.fXfXS.4.>.,.f.Y   + ",
"q 9 u g b :.:.1 % k ~  .@.#.@.q.! & 3 7.N.Q 2 x p.1.6.6.6.6.1.2.1.f < B N.p.< $ f.kXb.r.y.} Y ~ 2.t.Y.T.A.G.gXH.A.5.5.y.y.Y % : ",
"r : H ,.| h l l l / a.w.w.+.@.u.W & 6 M.p.7.s.^ * * 1 < e < < > > ) N.7.N.` r % d.gXrXY.rXe.t.F % f t.e.v.fXH.fXZ.e.h.5.d.( : 9 ",
"q ; U ,.I h v c z ( t.@.@.@.r.u.! $ 9 M.M.M.N.~ + * 9 @ 9 - % % 2 1.N.p.B.M.9 o d.jXdXY.OXh.w.l $ u t.u.rXjXA.tXv.5.X.5.t.~ * 9 ",
"0 ; k L =.b b g 1 U i.@.+.#.@.t.~ y p _ _ ] s.p.z G N N N N E G x <.s.] _ _ G u l.tXY.Y.m.k.l.U : a / L j.b.rXfXm.j.h.x.C.3.= q ",
"0 ; y k h :.3.7 $ H r.+.@.@.@.e.,.Y E ; $ _ B.p.a.f.N.F.8.N.s.s.N.s.B.W o 6 q.r.c.gXfXrXdXtXlX<.$ q : *  ...j.dXG.H.gXrXkXa.= 0 ",
"0 - c g h 5.;.1 o ! t.r.e.@.@.e...K / - q ` B.p.d.8.8.8.8.8.a.f.p.M.B._ $ * w.+.b.gXtXZ.dXA.lX^ $ ; $ % ..r.x.xXH.lXfXtXxXt.+ : ",
"0 ; F Y Y v x y 3 G R  .@.+.+.@.,.I I Q N M p M Q Q p.p.p.p.] [ G G p E R ..b.b.G.H.fXfXgXH.zX^   ! cXcXR 4 F G E G W W k q.cX&X",
"q ; J ,.| g x - $ u ~ | w.#.+.@. .K I I -.1 @ w z z { B.] B.p.u G *   P u.h.OXgXG.G.G.dXm.G.lX^   R AXSXA   & $ o o o o   O.DX2X",
"9 % J X.=.j u n f J P U w.+.@.y...R L U ~ c 1 e n n { { { { ` p p 6 , L e.h.m.m.H.H.dXOXm.v.tX(   R 1X2X%.8 V V V V s s 4 $.<X|.",
"9 * K :.~ * t VXCXj.@ y e.+.v.kXx.,.w.L U ~ b E 9 : 0 q 9 9 9 < 6 ) 5.j.OXm.gXG.H.dXG.OXv.h.t.Z $ R 1X X*XvXvXvXvXvXbXbXvX1X|.).",
"r % U 3.~ % 4 nXSX*.@ c w.e.c.kXl.X.4.A L J ~ l $ O : = = - $ % % ;.@.h.hXhXrXfXH.H.dXOXOXe.u.F o R 1X!.!.!.-X-X,X;X-X-XXX[.[.).",
"q ; x ~ x 2 3 nXAX&.$ w >...h.c.n.n.k.}  . .>.| ) ) E G Q ^ ( ( Y f.j.j.j.j.fXH.zXG.A.j.x...>.P $ [ mX].{._.(.(.).).'.).oX'.).].",
"0 9 u x i - 8 nXAX*.$ t U A ..X.n.jXrXh.h.@.4.k.kXtXf.e.c.xXhXjXkXfXgXn...@.fXfXH.gXb.X.4.U =.j O ) 0X(._._._._./.).).)./.^.].|.",
"q 0 t p y & * vX0X&.  3 Q Y ..+.h.fXyXu.4.y.@.h.jXOX#.X.j.OXOXOXdXyXkXc.9.u.rXdXzXzXC.y.0.~ / d . D <X`._._._._._._._._._.(.].[.",
"9 9 r ; R cX&XqX!.%X&XpXu < x.c.x.k.y.s d U R ..h.h.+.+.@.h.u.h.k.w.3.U 8 F u.h.5.3.~ 8 u t * V.cX$X6X_.(.}.(.(.[.].(._._./._._.",
"% $ = o R SX8X_.{. XqXvX8 $ z.kXx.O.0.< @ x ! Y e.@.e.w.t.w.r.9.t.Y U u = 3 X.X.| I k $ ; ; $ x.AX6X{.(.).(.(.[.[.].(._._._._._.",
"Z H u $ O.vX%X_.].].,XvX8 - C.jXj.,.<.1 - E ! ! 0.>.>.9.1.>.>.>.3.~ E M : < h.h.I / c 6 t - + I.2X_._.^.(.].[.).).)./._.(.(._._.",
"SXFXg.. R SX!.}.].XXXX*X4 $ F.hXk.L P ; ; 9 ; < * 3 * * * 4 > < 4 ; ; 9 q i S.kX~ @ k ! W t % I.7X'.)._.].].(.}.[.(._./.[.]._._.",
"%XAXr.X D AX%X{.].|.wXmX5 % l.kXz.I U < 9 =   $   o o o o o     . o O O 0 c A.jX/ @ 7 ! Q 1 $ I.<X(.(.(.(.}.(.].(.(.(.).(.`.(.(.",
"_.,X@X$.E.qX!. X.XQ.P.T.A g C.kXf.c z - : ` V.g.g.g.g.g.g.g.g.g.sXI.V.` = i tXkXQ $ u 0.^ , $ I.<X'.'.(.(.(.(.(.(.(.(.`.(.(.(.(.",
"/._.>X9X X{.[.].6XJ.+ > u.i.b.lX6.- - e $ pXDX0X0X0XAXqX0X0XwXwX9XqXDXT.# i uXlXE = F p.p.5 o I.9X(.(.(.(.(.(.(.(.(.(.(.}.(.(.`.",
"'._._._.^.^.).XX>X*.$ i 0.@.b.lX6.@ @ < $ E.7X`._.]._.!.(.^.).)._.].>XL.# i S.lXW $ u a.1.4 $ I.9X'.(.(.(.(.}.(.(.(.(.(.).(.(.(.",
"/.(.(.(.}.`.[.XX<X*.  n S.yX2.3.>.R <.4 $ U.>X^.[.[.(._._._.].[.).[.;XJ.$ a S.uXE + U uXC.y $ I.<X(._.'.(._.(.(.(.(.(.(.).(.(.(.",
"(._.(.(.).).).[.4XK.  n uXkX;.v ;.f.a.* & U.<X}.).}.(._._._.].}.}.[.6XJ.$ u uXxXQ + ~ NXD.y + x.2X'.)._.(.}.(.(.(.(.(.(.(.(.(.(.",
"}.|.}._.).).)._.;X&.+ z uXzX~ P ~ a.1.* $ E.7X_.).).(.'._.'.{.[.[.[.7XL.o t S.yXP + I D.C.t $ I.9X_.).)._.(.(.(.(.(.(.(.(.(.(.(.",
"[.[.^._._.^.`._.6X&.+ i zXfXl $ k ~ E 8 o U.8X/./.).(.)././.(.[.}.[.>XK.$ 6 0.u.k % d I ! * $ I.9X(._.).).(.(.(.(.}.(.(.(.}.(.(.",
"[.(./._.{.]._.{.;X&.+ x zXlXk = z ' / < $ E.8X(.).).}.(.'./.(.}.].].7XK.o 6 w.y.z $ c ^ W 6 o U.<X)._.(.(.).}.(.(.(.(.(.}.(.(.(.",
")._././.{._.!.{.6XJ.+ c d.z.p = a E p < $ U.:X'.).[.).).'.'.).(.].].7XJ.& u Y >.u : t x n 3 o I.<X(._.(.).^.}.^.(.(.(.(.(.(.(.(.",
"(.).).'.(.(.].].7XJ.$ w Q P t r O r : ; o U.<X).).^.).).).).].].{.(.6XJ.$ < U ~ a q 0 O q O o I.<X_.(.(.(.(.}._.(.(.(.(.(.(.(.(.",
").).).).).`.(.|.9X*.+ a ' _ r O 3 & * 4 & R.7X/.).(.).^.[.}.].].].!.;XL.% w ' / a 0 r 3 6 4 $ K.;X).^.(.(.(.(.(.(.(.(.(.(.(.(.(.",
").).).(.[.[.).].2XK.% 0 w a 9 % ) bXcX=X&X%X(.'.)._./.).].]._.{.{.}.;XK.+ 0 n w 9 $ ) VXxX=X=X%X.X_.^.(.(.(.(.(.(.(.(.(.`.(.}.(.",
")._.(.[.[.}.[.[.7X&.  * % + $ . $.SXqX;X4X.X`.`._._._._.(.(._._._. X7XJ.  $ $ $ & O D DX1X:X4XXX(._.).(.(.(.).(.(.(.}.(.(.(.(.(.",
"(.].}.(.).'._.].;XP.C C S Z D C J.qX-X|.XX).(.(._._.(.(.).).)._.).(.6XP.C S C C Z V W.qX,X|.].(.(.(._.).}.(.(.(.(.(.(.`.(.(.(.(.",
"{.(.].(././.)._.(.%XbXbXCXbXbXvX*X%X|.XX^.}._.`.!.{.].].).'.'.).).}.{.%XbXbXZXbXFXZX*X!.!.(.}.(.(.(.^./.(.(.).(.(.(.(.(.(.(.(.(."
};
