/* XPM */
static char *a4a1022de1aa4be7ff57ed5b06d5165dthGeMTSm115HOc5k[] = {
/* columns rows colors chars-per-pixel */
"50 50 197 2 ",
"   c #451C0D",
".  c #4A1D0D",
"X  c #441F11",
"o  c #481E10",
"O  c #47210E",
"+  c #4C210F",
"@  c #462111",
"#  c #4C2313",
"$  c #4F2817",
"%  c #4C2418",
"&  c #4F2A1A",
"*  c #522515",
"=  c #5A2611",
"-  c #532817",
";  c #5D2A15",
":  c #532718",
">  c #582718",
",  c #532B1B",
"<  c #5B2D1D",
"1  c #5C301F",
"2  c #642C15",
"3  c #6B2F17",
"4  c #622E1A",
"5  c #683017",
"6  c #64311C",
"7  c #6B341C",
"8  c #70341C",
"9  c #572F23",
"0  c #592F23",
"q  c #573121",
"w  c #5C3222",
"e  c #5E3529",
"r  c #5F3A2A",
"t  c #633523",
"y  c #6D3621",
"u  c #663926",
"i  c #6C3A25",
"p  c #613729",
"a  c #643A2A",
"s  c #6C3C2A",
"d  c #723B24",
"f  c #7D3E27",
"g  c #723E2B",
"h  c #7C3F2C",
"j  c #663F30",
"k  c #683E30",
"l  c #6C402E",
"z  c #7A4126",
"x  c #74422D",
"c  c #7B432C",
"v  c #654131",
"b  c #6C4433",
"n  c #6F4839",
"m  c #734433",
"M  c #7B4632",
"N  c #754935",
"B  c #7C4A35",
"V  c #764738",
"C  c #744C3B",
"Z  c #7B4E3C",
"A  c #76503D",
"S  c #7C513E",
"D  c #7D4F40",
"F  c #7D5242",
"G  c #804027",
"H  c #82462D",
"J  c #83482D",
"K  c #8A482E",
"L  c #814631",
"P  c #844C34",
"I  c #8A4E34",
"U  c #834E39",
"Y  c #8B4E39",
"T  c #914F37",
"R  c #865036",
"E  c #8B5136",
"W  c #84523D",
"Q  c #89553F",
"!  c #8B543F",
"~  c #8D553E",
"^  c #8C533B",
"/  c #915137",
"(  c #91563F",
")  c #93553C",
"_  c #98573B",
"`  c #91593E",
"'  c #92593E",
"]  c #94583E",
"[  c #9A593E",
"{  c #835543",
"}  c #8A5241",
"|  c #8C5340",
" . c #8B5741",
".. c #8E5641",
"X. c #8B5642",
"o. c #865946",
"O. c #8F5843",
"+. c #8D5944",
"@. c #8B5A45",
"#. c #845649",
"$. c #855A4A",
"%. c #8C5D4B",
"&. c #915641",
"*. c #925942",
"=. c #945B40",
"-. c #975B41",
";. c #955B43",
":. c #965A42",
">. c #965D41",
",. c #925844",
"<. c #915A45",
"1. c #955B45",
"2. c #945C45",
"3. c #965E45",
"4. c #945B43",
"5. c #9B5E42",
"6. c #995D41",
"7. c #9D5D41",
"8. c #9E5E42",
"9. c #9D5E42",
"0. c #995D45",
"q. c #9B5D45",
"w. c #9A5E44",
"e. c #995F47",
"r. c #9A5D47",
"t. c #9D5F47",
"y. c #9B5D43",
"u. c #915E4A",
"i. c #995F49",
"p. c #A05F43",
"a. c #8E614E",
"s. c #9D6043",
"d. c #9D6044",
"f. c #9E6144",
"g. c #9E6145",
"h. c #9F6246",
"j. c #9D6145",
"k. c #9E6145",
"l. c #94624D",
"z. c #9C6048",
"x. c #9D634B",
"c. c #9A684F",
"v. c #8D6251",
"b. c #956452",
"n. c #9A6653",
"m. c #936857",
"M. c #9D6A55",
"N. c #9A6B59",
"B. c #A06044",
"V. c #A16145",
"C. c #A26145",
"Z. c #A16146",
"A. c #A36246",
"S. c #A26246",
"D. c #A16448",
"F. c #A3654A",
"G. c #A8674C",
"H. c #A5694E",
"J. c #AA6A4E",
"K. c #B16F4F",
"L. c #A16752",
"P. c #A36B53",
"I. c #AB6D52",
"U. c #A46E59",
"Y. c #B16F53",
"T. c #AD7155",
"R. c #A6725B",
"E. c #AC725B",
"W. c #B17256",
"Q. c #B3755A",
"!. c #B9775B",
"~. c #B5795D",
"^. c #BB7A5E",
"/. c #9F7161",
"(. c #A57767",
"). c #AB7762",
"_. c #AC7A65",
"`. c #AC7D6B",
"'. c #B47B63",
"]. c #BD7D62",
"[. c #B37E6A",
"{. c #BC7F6C",
"}. c #C17D5E",
"|. c #C17F62",
" X c #BD8165",
".X c #BF8168",
"XX c #C38265",
"oX c #C58569",
"OX c #C9876A",
"+X c #C6896B",
"@X c #CA8A6D",
"#X c #CD8D71",
"$X c #D08F72",
"%X c #CF9173",
"&X c #D39175",
"*X c #D19478",
"=X c #D99679",
/* pixels */
"    @ @ @ @ @ @ @ @ # # # # # # # # # # # # # # # # # # # # # # . . . . . . . . .               @ @ ",
"X @ # # # @ # @ @ # # * - < < < < < < < 1 1 w 1 w w w < < < < < < < > - - - * * * # # # o       X X ",
"# # * - - - , , , < w t u s g g m x m m x N N N B B B B B B B B Z B N N m l s s t w < , , - * # # @ ",
"* , < w w w p a b b m m B Z U U W W W W ~ ~ ~  .~ ~ ~ ~ ~ ~ ~ ~ @. .~ W U B B N x s s u t w < , , - ",
"< 1 t u s l m N Z Z U U W } } | ` ` ` ` ` :.:.>.:.:.:.:.:.:.:.:.3.,.+...~ W U B M N x s s u t 1 w w ",
"4 t u s x N B Z U U W W ....,.*.>.>.y.y.y.y.8.y.g.g.g.g.Z.g.Z.g.x.e.e.3.3.*.~ W R B M x N x s u u u ",
"y y s x M B U R W W ! ..,.1.e.e.g.g.g.g.g.g.Z.g.8.8.8.8.8.8.8.8.y.e.e.e.e.:.) ~ ~ W U B B M x s s s ",
"i d g c B U U R ! ! ) &.:.e.8.8.g.s.g.g.Z.Z.Z.Z.Z.Z.Z.Z.Z.Z.Z.Z.Z.Z.Z.D.D.g.e.*.&.W U L L M x g i s ",
"d g g c M P P E E E ) ] y.g.8.y.8.g.g.g.g.g.g.8.g.8.8.F.I.H.Z.F.G.G.F.F.F.g.:.` ~ E U P L B M x s i ",
"c c c M L P I E Y E / [ 8.Z.D.D.D.D.D.D.D.D.g.g.g.g.8.F.I.G.D.H.J.G.Z.[ [ _ / E ~ E E P U B M x g g ",
"g x c c L P Y E ] ] -.8.D.G.G.H.D.H.H.H.H.F.D.D.D.x.g.D.I.H.D.F.8.[ 8.8.p.8.-.) ~ E E U U U M x g s ",
"c c M P P E ) ] ] ] [ p.Z.F.F.H.D.F.F.H.H.H.H.H.F.F.D.D.P.H.D.H.G.A.F.F.F.g.y.:.*.+...~ ~ R B N x x ",
"M B U U E ) ] ] y.8.Z.F.G.J.G.J.H.H.G.I.I.I.I.I.I.I.G.I.W.W.I.W.Q.W.I.G.I.I.I.P.n.x.l.u.@. .U B m m ",
"U R ~ *.e.x.H.I.Q.!.].].].^.^.!.~.~.~.~.Q.Q.Q.Q.Q.!.!.!.|.XX|.OX].].|.XXXX].Q.E.L.n.l.%.X.W B m s s ",
"B R ~ 3.x.P.I.W.!.|.OX@X@X@X@X@X+X+XOXoXOXoXOXoXoXOXOXOX#X@X#X$X#X#X@XOX'.I.:.Y W U B N N m s s t t ",
"i g x M L P E / 8.F.W.].OX@X#X%X%X%X%X$X#X$X$X$X@X&X$X$X&X$X#X$XOX].W.g./ J d y 7 6 6 6 6 6 < < < < ",
"< 4 6 i g c h c f G K _ F.W.XX@X%X*X*X*X*X*X$X$X&X&X*X$X*X*X#XXXW.G.[ I J c d d d x Z Z { #.D V m m ",
"{ %.u.u.,...! Y ) / T / _ p.J.W..XoX+X#X#X*X*X&X$X&X*X*X$X@X!.I.F.s.y.y.g.H.P.P.R._.`.`.`.`.(./.b.b.",
").[.[.[.'.[.{.oXE.Q.W.I.G.G.G.F.H.I.T.Q.Q.].OX#X@XOX|.!.Q.W.I.F.I.T.W.T.I.P.E.'.).R.).).N.%.@.a.%.%.",
"+. .+.,.,.&.&.:.P.E.Q.E.I.I.H.g.:.:.:.] y.G.!.oXoX!.J.[ -.g.H.I.Z.g.g.g.d.>.` ~ U B M M Z W Z x g g ",
"W d ; 2 2 2 8 f E :.e.:.:.g.g.:.E E E E ] D.Q.XX!.I.Z.[ ] ] e.x.e.) E ) >.) c 7 7 7 2 ; R _.R.x = = ",
"P.P 7 2 2 2 3 d I E E P H c z d c c P ^ e.H.Q.!.Q.I.8.) Y I P I I E ^ ^ E H d 7 7 7 2 7 M 3.~ d c c ",
"P P ^ e.P.I.I.I.I.I.P.x.*.R c c c c P ` x.I.T.Q.Q.H.8.] Y P L P P *.x.P.x.x.H.T.T.P.U.E.I.x.3.e.) ~ ",
"y.H.I.H.I.Q.~.Q.I.F.:.E P c c c P U E 3.H.T.W.Q.I.G.H.H.x.) Y Y P P E *.x.U.E.E.E.'.].Q.'..XQ.H.D.x.",
"].]..XXXXX.X~.Q.I.F.e.*.E P M R E ~ ) 3.F.T.Q.T.W.T.P.D.e.:.&.) I ~ :.z.P.E.Q.~.]..XoXoX+X@X@XXX~.Q.",
"+X+X+XOXXX].!.~.].Q.I.x.3.~ E R L E ) >.F.I.I.I.T.I.H.D.e.:.&.) *.3.x.I.T.Q.~.].].]..XXXoXOXoXXXXX.X",
"@XOXoXXXXX].!.!.!.~.Q.H.*.E P P P E ) >.x.F.G.H.F.Z.8.y.] / E E I ) x.E.Q.~.!.XX].].XXXXXXoXXX^.oXXX",
"XX^.^.^.^.^.^.!.!.].'.F.Y L P P I E E ) ] y.Z.F.D.D.Z.8.[ ) E E E _ H.~..X].!.].].XXXXXXXXoXXX^.].^.",
"^.!.^.^.^.|.].].!.!.I._ J H J P I I E ) y.F.J.Y.Y.I.G.Z.[ / Y I I I [ G.!.!.^.].XXXXXXXXoXoXXX|.^.^.",
"^.^.^.|.|.|.].^.!.G._ I / ] -.) ) ] g.I.!.XXOXOXOXOX].W.H.8.-.] [ _ [ 8.I.!.|.XXoXoXoXXXoXoXoX|.].^.",
"^.].XXoXOXoX|.|.|.J.[ 8.G.Q.~.Q.I.H.T..X#X*X&X&X=X=X*X@X|.!.!.!.oX|.Q.J.I.!.|.|.OXOXoXoXoXoXoXXX^.^.",
"|.|.oXOX@X#X@X@XoXQ.I.I.Q.'.].].~.E.E.].+X#X#X@X@X@X@XOXXXXXoX+XXXXX!.W.W.].OXoXOXOXOXoXoXOXOXoX|.^.",
"^.}.|.XXoXoXXX].'.Q.I.P.L.F.x.e.3.4.z.P.'. XoX.X.X].^.~.Q.I.D.e.e.e.x.F.H.I.Q.!.].!.!.^.XX}.}.XX!.!.",
"Y.W.Y.I.Y.Q.Q.T.P.x.e.1.,.&.W U U U U E 3.x.P.P.I.F.y.^ E E E W W ~ ..*.3.z.x.D.D.D.F.G.J.Y.K.J.G.G.",
"8.g.g.g.Z.H.H.z.e...U M g y 5 ; = = = ; 4 5 7 7 2 2 2 2 7 2 2 2 7 y g c U ..*.:.*.d.D.x.g.8.y.y.g.g.",
"E ^ :.x.z.` P M d 7 6 4 4 ; 4 ; t u g x x g d d y d c P E U c g 6 5 6 7 i d y 7 7 c E ,.*.~ ) 3.:.:.",
"E W %.c.%.x 4 4 6 7 y i x x B R @.%.b.M.P.P.U.U.E.E.E.E.E.E.U.P.l.u.@. .} U M x 6 7 x  .u.@. ...~ ~ ",
"Q Q %.l.W u 6 y B Z Q  . .@.%.u.%.a.l.l.n.P.E.'.).E.U.P.L.P.P.M.l.l.%.@.X. .} W W x g W b.b.@.W W ~ ",
"{ %.a.%.Z x N { Z S R W W Q Q Q @.%.u.l.c.M.U.E.P.L.F.x.L.n.x.l.@.+.W U U U W W @.Z g m @.N.m.@. . .",
"F v.m.$.V N o.b.a.o.Z B M B B M B W u.n.P.P.P.P.U.P.P.P.L.x.e.3.~ W R U U Q @.l.n.b.{ m Z b.N.b.@.@.",
"#.%.%.F V Z %.N.n.m.l.@.@.@. .U +.l.P.R.E.T.E.E.E.Q.Q.Q.E.I.x.e.l.3.u.3.x.M.U.R.R.n.@.W W { %.%.o.o.",
"{ $.%.{ Z D %.N.m.N.n.b.l.l.u.+.u.c.U.E.'.'.]..X.X.X].].'.Q.E.U.H.P.P.R.E.R.R.R.M.u.Z N B W { @.o.o.",
"#.#.#.{ V m V Z %.b.n.b.b.b.b.u. . .+.+.~ ~ E E E ) ) ` *.*.3.3.R.R.R.R.R.M.l.u.U x u u m Z { { #.F ",
"#.#.#.F m t < < t s x N Z { %.b.l.a.%.%.+.*.~ ^ P I ~ *.3.z.M.U.R.M.l.%.W B x s 6 ; ; 6 m S { { A D ",
"F D F F V t * . . . * - < u m Z a.%.%.%.l.l.l.l.l.c.M.U.M.M.U.R.b.%.S x t < - * - + + < s Z F A C C ",
"Z Z F F C u - . # . . . # * w s C N C V Z Z B M @.%.b.b.l.@.#.{ F C b u 1 - # . .     * u V F F C C ",
"Z A A A C b w # .     O # , p b a v b C A F S S { o.%.a.%.#.Z m k a p e q - # @ o o # q b C F F C C ",
"C C A C A C l 1 # O   O # @ - q e r v b n C m m m V Z F C b u w w w 9 , , & % # , , e b C F F C C b ",
"C C C C Z Z A Z b u w - # # # # , q w r a j a a e p p p u t t w , - : - , , w p C C F F F C V C n b ",
"C C C C Z A Z Z F Z V b a w , , # $ , w e e e w 0 w w w w w < < < w e s m Z #.$.#.#.$.#.F Z Z Z C C "
};
