/* XPM */
static char *_4a4255e7e754d43f0ba55aeee5cafaevkqT4vZN3w9CS9za[] = {
/* columns rows colors chars-per-pixel */
"64 64 252 2 ",
"   c #070B06",
".  c #110D00",
"X  c #180C05",
"o  c #0A1409",
"O  c #1D1501",
"+  c #181605",
"@  c #020E13",
"#  c #080C12",
"$  c #051213",
"%  c #0C1415",
"&  c #0C151B",
"*  c #09171B",
"=  c #141213",
"-  c #141B13",
";  c #10141A",
":  c #121B1B",
">  c #1C1A14",
",  c #230E00",
"<  c #221400",
"1  c #231B01",
"2  c #271A09",
"3  c #331B0B",
"4  c #381705",
"5  c #251C13",
"6  c #291C17",
"7  c #351B12",
"8  c #1E2416",
"9  c #262307",
"0  c #352803",
"q  c #272216",
"w  c #392F12",
"e  c #0D1520",
"r  c #0A1A21",
"t  c #131A22",
"y  c #151523",
"u  c #140F22",
"i  c #192626",
"p  c #272B2A",
"a  c #2C322B",
"s  c #2B2E33",
"d  c #252F31",
"f  c #2B3334",
"g  c #2A3236",
"h  c #333635",
"j  c #33302C",
"k  c #461B04",
"l  c #492409",
"z  c #562804",
"x  c #593A02",
"c  c #4C2512",
"v  c #47281B",
"b  c #532A1B",
"n  c #5A2E1B",
"m  c #532712",
"M  c #58321C",
"N  c #4A371D",
"B  c #643811",
"V  c #432A24",
"C  c #472B22",
"Z  c #542E24",
"A  c #49342A",
"S  c #533023",
"D  c #5C3627",
"F  c #5F3E33",
"G  c #653B27",
"H  c #673C34",
"J  c #713D2E",
"K  c #3D4433",
"L  c #5A4404",
"P  c #5C530B",
"I  c #574717",
"U  c #634B00",
"Y  c #795C03",
"T  c #65571B",
"R  c #674F0F",
"E  c #7A6305",
"W  c #77631E",
"Q  c #474526",
"!  c #5C4529",
"~  c #575031",
"^  c #65422B",
"/  c #69432A",
"(  c #635B25",
")  c #6A4233",
"_  c #655937",
"`  c #67632B",
"'  c #756832",
"]  c #343D43",
"[  c #374748",
"{  c #3E4D51",
"}  c #444B47",
"|  c #555B4D",
" . c #585A4A",
".. c #545C5B",
"X. c #595D5B",
"o. c #585C53",
"O. c #43514B",
"+. c #685948",
"@. c #795944",
"#. c #6F5A54",
"$. c #59624C",
"%. c #58615A",
"&. c #656247",
"*. c #766D5B",
"=. c #706C56",
"-. c #5B5D62",
";. c #4E5D62",
":. c #586967",
">. c #6E726A",
",. c #997A09",
"<. c #8B7417",
"1. c #907111",
"2. c #A37818",
"3. c #A67509",
"4. c #8C702F",
"5. c #A47727",
"6. c #875F2B",
"7. c #855E49",
"8. c #89664C",
"9. c #896856",
"0. c #907B52",
"q. c #A78513",
"w. c #B29012",
"e. c #9C8424",
"r. c #9E8B35",
"t. c #8D8031",
"y. c #A88829",
"u. c #B59331",
"i. c #8F801B",
"p. c #DDB315",
"a. c #DDB41C",
"s. c #DCB818",
"d. c #DAAF12",
"f. c #E5B506",
"g. c #E5B906",
"h. c #E6B70D",
"j. c #E9B60C",
"k. c #E6B80B",
"l. c #E9B90D",
"z. c #EAB705",
"x. c #E3AF17",
"c. c #E5B613",
"v. c #EAB512",
"b. c #E4B913",
"n. c #EAB912",
"m. c #E3B51B",
"M. c #EAB51A",
"N. c #E4B91B",
"B. c #EAB91B",
"V. c #EDB310",
"C. c #C6A52B",
"Z. c #D5AD25",
"A. c #DBB324",
"S. c #DCB42B",
"D. c #DBB928",
"F. c #C4A737",
"G. c #D9B735",
"H. c #CDB23C",
"J. c #E4B522",
"K. c #E3BB24",
"L. c #E9BB24",
"P. c #E4BB2B",
"I. c #E4B72B",
"U. c #EBBD35",
"Y. c #E5BD3C",
"T. c #EABE3B",
"R. c #E3B934",
"E. c #C69610",
"W. c #DCC137",
"Q. c #E5C23B",
"!. c #EBC23C",
"~. c #EAC136",
"^. c #E7C02B",
"/. c #9C8F4D",
"(. c #B09355",
"). c #B8B053",
"_. c #939371",
"`. c #B39B7B",
"'. c #AA876B",
"]. c #ABB47C",
"[. c #B6AC70",
"{. c #CAB44A",
"}. c #DDBC4B",
"|. c #D9B748",
" X c #D7BA57",
".X c #CCAB51",
"XX c #E5BD45",
"oX c #E2BE55",
"OX c #D9BE67",
"+X c #E1BE6A",
"@X c #E8C347",
"#X c #E5C253",
"$X c #DCC267",
"%X c #DCC673",
"&X c #EACB6D",
"*X c #EFD660",
"=X c #728784",
"-X c #B49C86",
";X c #AE9D8E",
":X c #98AD9A",
">X c #9BB39B",
",X c #91A48F",
"<X c #B6A589",
"1X c #A6B589",
"2X c #A7A997",
"3X c #B6A792",
"4X c #A4B19B",
"5X c #AAAE8D",
"6X c #9BACA5",
"7X c #98ADA8",
"8X c #9BB3A4",
"9X c #9BB4AB",
"0X c #9FB9A8",
"qX c #9CB4B2",
"wX c #A3AEA7",
"eX c #B4ADAA",
"rX c #A3B5A9",
"tX c #A5B9B5",
"yX c #B5BCB3",
"uX c #8C9D8D",
"iX c #C3A68C",
"pX c #C5A58B",
"aX c #CAAC98",
"sX c #C8B299",
"dX c #D9B99C",
"fX c #CABAA2",
"gX c #C49B85",
"hX c #AAC2B8",
"jX c #B7C4B5",
"kX c #D5CC91",
"lX c #E8DA93",
"zX c #FFEB99",
"xX c #FAED96",
"cX c #CFD4B6",
"vX c #ECD7B3",
"bX c #FDE8A9",
"nX c #FBE7BA",
"mX c #F8F1AB",
"MX c #DFE8A5",
"NX c #AEBDC2",
"BX c #D3D9C5",
"VX c #FBDEC5",
"CX c #E9DCC7",
"ZX c #FBE4C5",
"AX c #FCE4CB",
"SX c #FDEACD",
"DX c #F6E7C7",
"FX c #FEEAD3",
"GX c #F8EAD3",
"HX c #FCF2D8",
"JX c #EFEBD1",
"KX c #D6E0C5",
/* pixels */
"h.h.h.h.h.h.h.h.h.h.h.h.h.k.k.k.c.b.l.h.v.V.c.b.N.p.N.c.c.h.b.b.h.n.j.j.h.k.l.j.j.z.g.g.j.j.v.h.k.k.v.v.v.h.k.k.v.c.k.k.j.j.k.g.",
"h.h.h.h.h.h.h.h.h.h.h.h.h.h.k.h.n.b.h.h.j.v.M.m.s.s.m.b.b.m.m.m.c.c.j.v.h.k.k.f.f.z.k.k.j.j.j.h.k.h.v.v.c.h.k.k.v.v.k.h.j.j.h.k.",
"h.h.h.h.h.k.k.h.h.h.h.h.h.h.h.h.c.c.k.k.j.c.L.P.D.P.J.L.L.L.P.P.L.B.v.v.b.k.k.g.l.h.k.b.v.v.z.z.h.h.v.v.c.h.k.j.j.j.h.j.v.v.j.j.",
"h.h.h.h.h.k.k.k.h.h.h.h.h.h.c.c.b.h.k.h.h.m.C.F.F.F.C.C.C.F.u.u.u.E.L.c.c.b.h.k.j.v.n.B.B.c.z.z.h.h.j.j.h.h.k.j.j.j.h.h.v.v.j.j.",
"h.h.h.h.h.h.k.k.j.j.j.j.j.v.v.c.k.k.g.k.n.Z.E T ( ( ` ( ( ( 0 0 0 Y G.m.N.b.k.k.c.M.v.v.M.b.n.h.k.h.j.j.h.k.k.k.h.c.k.k.k.j.h.k.",
"h.h.h.h.h.h.h.k.j.j.j.j.j.v.v.c.h.k.g.h.B.G.W _ &.o.$.| $.| a a 9 T }.A.a.m.m.m.J.m.x.M.m.m.m.k.k.k.k.k.k.k.k.k.h.h.k.k.k.k.h.h.",
"h.h.h.h.h.h.j.j.j.j.j.j.j.j.h.h.j.n.v.b.J.H.` $. .o.$.%.%...f a q ` $X@XT.Y.Q.Q.Q.Q.@XT.I.J.p.b.h.h.k.k.k.k.j.j.h.h.h.h.j.j.v.c.",
"h.h.h.h.h.h.j.j.j.j.j.j.j.j.h.j.v.v.v.B.P.H.`  .o.%.} } } [ d f p Q 4.<.<.<.<.<.<.<.<.1.q.I.N.b.c.j.k.k.k.h.j.j.j.h.h.h.j.v.v.v.",
"k.k.h.h.h.h.j.j.j.j.h.h.h.l.l.h.v.c.b.N.P.H.`  .o.X.h p p a f a f 8   . . . . . . . . . U @Xp.l.v.v.h.h.c.v.v.v.j.z.k.h.j.j.j.g.",
"k.k.h.h.c.c.v.v.j.j.l.l.h.f.k.l.b.b.N.a.S.{.` | X.-.h a a a f s f d % - : ; y y & : - . U XXm.c.M.m.N.p.m.M.v.v.j.l.k.h.h.h.k.g.",
"k.k.h.h.c.c.v.v.h.h.h.k.k.k.h.h.c.c.K.Y.@X.X_ $.X.-.h d f f s h s p % * % & u y e % - . U }.A.K.D.~.G.W.P.m.v.v.j.h.h.h.h.h.h.h.",
"k.k.h.h.c.c.v.v.h.l.l.h.h.h.b.b.b.L.Z.y.u./.&.o.X.-.h d f s s s s p % % & ; u u & $ - . U oXZ.R.w.,.i.<.w.P.m.h.h.h.h.h.h.h.c.c.",
"k.k.h.h.c.c.h.h.h.l.h.h.c.b.m.p.N.D.<.0 0 w | X.X.X.h s f f f f s p * e & & y y e : - . L oXG.Y.e.P ` P ,.W.p.b.h.h.h.j.j.j.v.v.",
"k.k.h.h.h.h.h.h.h.h.h.b.N.m.J.P.A.XXt.0 j a X.%.%.X.h s s f g g f d & * * * & e & & - . L OXH.}.r.T _ ( <.W.a.b.h.k.k.j.j.j.j.v.",
"h.h.h.h.h.h.h.k.f.k.n.b.m.J.I.G.|.$X0.9 a h o.o.....] g d f g g f i * * * * & & e @ o   I %X|.#Xy.R ( P ,.Q.m.v.j.h.j.j.c.h.k.g.",
"h.h.h.j.j.h.k.k.k.h.h.c.L.I.w.1.<.4.Q . - - - 8 i i & t t t t & : t * * * * & ; % d h j ~ /.r.y.y.e.r.e.w.P.M.B.j.j.j.h.c.c.k.g.",
"k.k.j.j.j.j.g.g.k.k.v.v.h.~.2.T _ &.w o o % # & & * * % & & % % % & $ : e & e & % O.:.%.+.~ ( P y.#XG.^.K.M.M.v.v.j.h.h.h.h.h.k.",
"h.h.j.j.v.j.k.g.k.b.v.j.f.P.e.T _ &.Q o o % & e & * * * & & % o % % # # = ; = #   } o. .#.+._ ( y.Y.s.b.h.c.c.v.j.j.h.h.h.h.h.h.",
"c.h.j.j.v.v.k.k.b.c.c.v.l.K.q.E W ' I + - : t t t : : : t t : : : > p 5 6 6 6 q q ~ +.+.+._ _ R y.Y.s.b.b.n.v.v.h.h.h.h.h.h.h.h.",
"b.c.h.j.v.v.h.h.k.b.M.v.f.b.D.G.|. X/.~ $.....-.................| >.;X;X;X;X;X;X;X+.v S S v M l 2.Y.m.b.c.c.v.v.h.k.h.h.h.h.h.h.",
"b.c.h.h.v.v.j.h.n.c.v.v.n.h.s.s.S.}./.~ $.%.%.%.X.X.%.%.%.%.%.X.o.>.3X<X<X<X<X<XiX@.b G Z Z M l 2.Y.m.b.c.h.v.j.h.k.k.k.h.h.h.h.",
"b.c.h.h.v.v.j.j.l.h.v.j.j.j.h.k.p.G.r.~ ~ | |  .| | | | | |  . . .*.<X-X`.`.`.`.-X^ k c c b n z 2.T.m.b.n.n.n.j.k.k.k.k.h.h.h.h.",
"h.h.h.h.j.j.j.j.f.l.l.h.j.j.j.h.N.G.(.' =.=.*.*.*.*.*.*.*.*.*.*.=._.fXsXsXsXsXsXdX0.@.@.8.M n z 2.T.a.b.b.h.j.j.k.k.k.k.k.k.h.h.",
"h.k.h.h.j.j.j.j.l.f.k.h.v.j.j.v.b.S..X[.<X<X<X<X3X3X3X3X3X3X3X3X<XfXFXSXGXFXFXFXSXAXSXSXZX/ m z 3.U.m.b.n.h.j.j.g.k.k.k.k.k.h.h.",
"k.k.h.h.j.j.j.j.k.k.k.k.h.c.v.v.M.R..X[.`.<X`.-X-X-X-X-X-X-X-X`.`.aXZXDXZXAXAXAXZXnXnXvXnX/ m z 3.U.m.c.v.j.f.l.k.k.k.k.k.k.h.h.",
"k.k.h.j.j.j.j.h.h.k.k.k.k.c.v.M.M.R..X(.`.`.pXpXiXiXiXiXiXiXpXpXgXdXZXZXZXAXSXSXZXSXSXSXZXB z z 3.L.B.h.j.n.j.j.k.k.h.h.k.k.h.h.",
"h.h.j.j.j.j.h.h.c.c.h.k.k.k.c.v.B.S. XkXkXvX'.7.9.8.8.8.9.9.8.8.7.'.AXVXSXAXAXAXFXiX'.'.(.5.2.3.E.L.b.h.v.j.j.j.k.k.h.h.h.k.h.h.",
"h.h.j.j.j.h.h.c.b.b.h.h.k.k.h.v.v.A.&XmXnXFX9.k m c l l c c l c 4 7.FXAXAXSXFXAXFX@.4 k z .XXXU.J.M.h.h.n.j.h.l.k.k.c.h.h.k.h.h.",
"c.h.j.j.j.h.h.c.v.v.c.h.k.g.k.j.c.A.&XbXvXFX9.c D n n n M n n D b 9.FXVXZXVXSXVXFX@.c B x .XR.a.M.c.l.l.v.j.j.k.h.h.c.c.h.k.j.j.",
"c.h.j.j.j.h.h.h.v.v.v.v.k.k.k.h.n.A.&XbXZXHX9.4 c c l l c c c c 4 @.HXSXAXSXSXSXHX9.v m x .XI.M.b.h.l.h.j.j.j.h.h.h.c.c.h.k.j.j.",
"h.h.j.j.j.c.h.h.j.j.j.j.h.k.h.b.N.U.u.6.8.@.`.sXsXsXsXaXaXaXaXaXsX-X@.9.8.7.9.8.9.V 2 2 0 .XS.b.n.l.h.h.j.j.h.h.h.c.b.c.h.k.j.j.",
"h.h.j.j.v.c.h.h.j.j.j.j.j.h.v.c.m.R.5.k m 4 pXHXSXFXFXFXFXFXFXSXHXsX4 l k k c c w 6 o . 1 ).R.b.k.n.j.j.j.l.h.h.h.h.c.c.j.j.j.j.",
"h.h.j.j.h.c.h.c.b.c.j.j.h.h.h.h.b.U.5.z B k pXAXZXZXAXAXAXAXZXZXFXaXc D n n n b A 5 % - O .XG.m.m.n.v.j.h.k.g.k.k.h.j.j.j.j.j.j.",
"j.j.k.k.h.h.j.h.b.c.k.k.c.c.h.h.b.U.5.z m m gXSXVXZXAXVXVXVXVXVXFXaXc n b b b S A q & o 9 [. XG.D.N.v.j.h.k.k.k.k.k.j.j.j.j.j.j.",
"h.k.k.h.j.j.h.h.h.h.k.k.h.c.c.b.N.U.5.z m m G / ^ ^ ^ ^ / / / ^ G G n m S w X > o >.,XuXuX1X].).H.D.N.k.b.b.c.h.k.k.j.j.h.k.k.k.",
"k.k.k.h.j.j.k.k.k.k.g.k.h.c.b.b.c.U.5.z m n n c c c c c c c c c b c m S A q = % @ =XhXrXrX:X>X1X).G.s.k.N.N.c.c.h.k.j.j.k.k.k.h.",
"h.h.j.j.j.j.k.k.k.k.g.k.h.h.c.c.v.U.5.z M S Z Z S S S S M M S S Z D b b A 6 # * $ =XtX:XwX4X>X].{.G.s.b.c.v.v.b.c.b.b.c.k.k.k.h.",
"h.h.j.j.j.j.k.k.h.h.k.k.h.h.h.b.h.~.5.l N V V V V V V V v V V j V V C v A j p d i =XrX8XrX8X0X1X[.{.H.S.m.B.v.v.b.c.b.c.k.k.h.h.",
"c.c.j.j.j.j.k.h.h.h.j.j.k.k.k.h.h.Q.4.X + = = = = = = = = = = = = = X >   %.yXrXrX8X0X9X6X9X8X>X1X].[.{.G.J.M.v.b.c.j.j.j.j.j.v.",
"c.c.j.j.j.j.h.h.c.c.v.j.k.k.k.b.s.@X4.X - ; & % % % & ; ; % & & & & : % @ :.tX6X8X8X8X9X9X9X9X8X>X>X1X[.H.A.b.v.c.c.j.j.j.j.v.v.",
"b.c.j.j.j.j.h.h.c.b.v.v.l.b.p.a.Z.#X'       o - % % & & & ; % & & & @ $   ;.NX7X9X8X:X:X6X7X7X6X6X8X4X].{.A.v.j.b.k.k.j.v.v.b.b.",
"h.h.j.j.j.j.h.h.n.v.v.v.h.b.P.@X#X&X_.Q K O.i o % & % & & $ & : * i { [ [ =XtXqX6XjXjXjXjXjXjXjXjX6XwX1X{.A.v.h.k.k.k.h.v.v.b.b.",
"k.k.j.j.j.j.h.h.h.h.j.v.c.m.@XxXzXnXcXrXhXhXO.  & * * * * * * r @ [ hXhXtXtXqX9X8XBXJXGXGXJXJXJXJX4X4X].{.D.B.l.k.k.k.h.j.j.j.g.",
"k.k.j.j.j.j.h.h.h.l.j.j.c.A.oXzXnXDXcX>X:XrX[ @ & e r * * r r r @ [ tX6X7X7X7X9X:XBXJXDXDXDXDXDXCX5X5X].{.S.M.h.k.g.k.h.j.j.g.g.",
"k.k.j.j.j.j.b.k.k.l.j.j.b.A.oXbXnXJXcX>X>XhX{ @ e $ $   @ $ $ * @ [ tX6XwXrX9X8X>XKXJXDXAXAXAXSXCX2X1X[.{.S.N.h.g.g.h.c.h.k.k.k.",
"h.k.j.j.j.j.c.b.f.h.f.h.h.A.$XbXnXHXcX:X8XtXO.@ : * ;.:.:.:.& : @ [ yXwXwXwX6X8X:XcXGXAXSXSXAXSXCXcXcXkX}.S.a.b.g.z.h.c.k.k.k.k.",
"b.h.j.j.j.j.b.m.b.l.j.z.k.a.#XbXbXSXcX:X0XtX{ @ & $ :XhXhX7X& & @ ] tX6XwXrX9X8X4XKXGXAXAXAXDXDXSXDXnXmX#XS.a.m.j.z.j.h.k.k.h.j.",
"c.h.j.j.j.c.c.b.b.h.h.k.k.p.#XzXbXnXcX5X:XtX} # - o uX>XrX,X- : @ [ tXwXwX6XwXwX2XBXGXAXAXAXZXZXnXnXbXzXXXA.a.N.j.j.j.j.k.k.j.v.",
"h.h.h.j.j.c.c.h.h.h.h.b.b.a.!.*XxXbXvX3X4XyX} . + . _.1X1X_.+ -   K yX4XeXeXeXeXeXCXFXAXSXAXAXZXnXbXbXxX@Xp.b.k.j.j.j.j.j.j.v.v.",
"k.h.h.h.c.h.h.h.h.h.h.b.B.J.J.!.oX&X(._ +.#.) V A N kXMXMXkXQ A A F =.&.#.#.#.#.+.9.8.8.8.8.8.6.(.+X+X#XD.b.k.l.c.v.j.j.j.j.v.v.",
"h.h.h.h.c.h.c.h.h.l.h.k.m.N.m.A.Z.}.5.x G G H H ^ I lXmXxXlX/ ^ ) H M G D F F F H D G G G G G x 2.}.G.A.b.l.f.h.v.v.c.h.h.h.h.h.",
"h.h.h.h.c.h.h.h.k.k.k.h.b.m.N.B.J.Y.y.B / J H J / I lXzXxXlX/ ) J G J / ) ^ ^ ^ ) H ) ) ) G / B q.~.m.N.h.l.j.j.j.c.c.c.h.h.k.k.",
"k.h.h.h.c.h.j.j.l.f.f.k.h.b.b.b.c.T.y.x / ) F ! ! I kXbXMXkX! G H H ) G ! ! ! ^ F H H H H F ^ x 2.U.p.b.h.j.v.j.j.h.c.c.k.k.g.g.",
"h.k.h.h.c.h.j.j.k.f.g.h.h.h.h.k.b.T.<.4 4 3 3 9 9 9 0 0 0 0 0 3 7 7 3 3 3 3 3 3 3 7 7 3 3 3 3 4 ,.~.c.b.v.v.j.j.j.j.c.c.h.k.k.g.",
"h.h.h.h.h.h.j.j.h.l.l.f.h.h.h.b.c.!.4.< 0 2 2 1 9 1 2 2 O 2 2 2 5 5 5 q 2 5 5 5 2 2 q 5 2 2 2 < 1.!.m.b.v.v.j.j.j.j.v.c.h.h.j.j.",
"k.k.h.h.h.h.j.j.j.j.h.l.l.l.h.h.c.~.<.< < < 1 9 9 q 5 q 5 2 1 < 1 O 1 < < 2 5 6 5 2 5 2 1 1 1 , 1.~.p.b.b.c.v.j.j.j.j.v.j.j.j.v.",
"k.k.h.h.h.h.j.j.j.j.j.j.j.j.h.h.c.U.2.x x x 0 1 q > 5 q 1 0 L x L L x x L l 2 6 5 q q 2 0 L x x q.P.p.k.h.h.h.l.j.j.j.j.j.j.j.j.",
"k.k.h.h.h.h.j.j.j.j.j.j.j.j.h.h.v.m.S.}.}.+X( O q > 5 q O ' $X|.|.}.}. X$XW < 6 q > q O T OX XXXP.N.d.n.f.h.n.h.h.h.h.h.j.j.j.j.",
"k.k.h.h.j.h.h.h.j.j.j.j.v.j.v.h.k.h.N.J.S. XT O q p 6 q O W oXS.I.A.I.S.#X<.1 q 8 q q O R  XG.J.N.p.N.n.h.h.l.h.c.h.k.g.g.g.j.j.",
"h.h.h.h.j.h.h.h.j.j.v.v.v.v.v.h.f.l.j.c.p.@XL O , < , 1 O E !.x.B.b.m.a.Q.E X 1 O O 1 O U @Xa.n.c.b.B.d.l.l.h.n.c.h.k.g.g.g.k.h.",
"h.h.h.h.h.h.h.h.h.h.h.h.h.h.c.h.b.b.h.v.M.R.,.Y Y Y Y Y Y q.P.b.k.k.h.b.^.w.Y Y Y Y Y Y ,.P.m.h.n.v.v.v.l.j.j.l.c.c.k.k.k.h.c.c.",
"h.h.h.h.h.h.h.h.h.h.h.h.h.h.h.c.h.b.h.c.n.p.~.~.~.Q.XXT.!.K.p.b.h.k.h.k.m.P.@XXXXX@XY.!.^.m.b.h.h.h.j.n.j.f.l.v.c.c.k.k.k.h.c.b.",
"h.h.h.h.h.k.k.k.h.h.h.h.h.h.h.h.v.n.k.k.h.n.d.b.b.d.m.m.M.v.B.M.v.v.h.h.n.b.p.J.a.a.J.m.x.b.h.l.l.l.j.f.j.j.v.v.c.c.h.k.k.j.j.j.",
"h.h.h.h.h.k.k.k.h.h.h.h.h.h.h.j.j.j.g.k.k.j.j.l.g.g.c.v.V.V.v.B.v.v.v.h.h.h.k.b.b.b.M.B.v.c.f.k.h.f.l.z.j.j.v.v.c.c.h.k.j.j.j.j."
};
