/* XPM */
static char *ba945e115a4f4174bdd2b07479631d18hvjObHwZZZOkcoaH[] = {
/* columns rows colors chars-per-pixel */
"64 64 252 2 ",
"   c #0C0B01",
".  c #010D0E",
"X  c #070907",
"o  c #120B00",
"O  c #180A02",
"+  c #08140A",
"@  c #1C1501",
"#  c #1D1A02",
"$  c #191809",
"%  c #020D13",
"&  c #070D18",
"*  c #051315",
"=  c #0A1415",
"-  c #06141A",
";  c #0B151C",
":  c #0C191C",
">  c #09191A",
",  c #141314",
"<  c #161A19",
"1  c #130E14",
"2  c #231500",
"3  c #261B09",
"4  c #361708",
"5  c #241C13",
"6  c #261C18",
"7  c #341B12",
"8  c #230F00",
"9  c #1D2118",
"0  c #1F220F",
"q  c #342906",
"w  c #232014",
"e  c #23221C",
"r  c #292319",
"t  c #372A0D",
"y  c #0C1521",
"u  c #0C1922",
"i  c #061421",
"p  c #131322",
"a  c #131A23",
"s  c #181C27",
"d  c #172627",
"f  c #252A29",
"g  c #2B312C",
"h  c #2A2E33",
"j  c #272C36",
"k  c #253132",
"l  c #2B3334",
"z  c #2C333A",
"x  c #323839",
"c  c #353026",
"v  c #481B04",
"b  c #4B1F12",
"n  c #4C220D",
"m  c #4B2400",
"M  c #562605",
"N  c #583B02",
"B  c #4C2412",
"V  c #47281D",
"C  c #512413",
"Z  c #5B2D1B",
"A  c #552918",
"S  c #56331C",
"D  c #643718",
"F  c #66340D",
"G  c #442A24",
"H  c #482C20",
"J  c #552D23",
"K  c #592E22",
"L  c #493327",
"P  c #593425",
"I  c #4D3A35",
"U  c #633C2D",
"Y  c #6C3D2C",
"T  c #643725",
"R  c #713B2D",
"E  c #683D31",
"W  c #723C32",
"Q  c #3D473E",
"!  c #594503",
"~  c #5A4F18",
"^  c #785B02",
"/  c #654E0D",
"(  c #7C620A",
")  c #484627",
"_  c #5A572B",
"`  c #5B5735",
"'  c #584333",
"]  c #6B412B",
"[  c #65432A",
"{  c #655727",
"}  c #6B4135",
"|  c #714234",
" . c #645B36",
".. c #754C36",
"X. c #7B6622",
"o. c #6E6732",
"O. c #364848",
"+. c #374B4C",
"@. c #434B49",
"#. c #555B4B",
"$. c #555B53",
"%. c #545D5C",
"&. c #595D5D",
"*. c #575953",
"=. c #45514F",
"-. c #655649",
";. c #795948",
":. c #6B5D55",
">. c #576259",
",. c #5D614D",
"<. c #65624C",
"1. c #746A58",
"2. c #75705A",
"3. c #65605A",
"4. c #595D61",
"5. c #4E5D62",
"6. c #596666",
"7. c #70736A",
"8. c #8C6A07",
"9. c #89750D",
"0. c #8A7915",
"q. c #917815",
"w. c #94700D",
"e. c #A57819",
"r. c #A67508",
"t. c #8E752D",
"y. c #A77826",
"u. c #845F16",
"i. c #835E45",
"p. c #8A654C",
"a. c #8A6855",
"s. c #907150",
"d. c #968116",
"f. c #AF8D12",
"g. c #9D8837",
"h. c #9B872D",
"j. c #A8882B",
"k. c #B6972C",
"l. c #DEB30C",
"z. c #DDB413",
"x. c #DDB41B",
"c. c #DEB91A",
"v. c #D2A81A",
"b. c #E5B506",
"n. c #E5B906",
"m. c #E6B70D",
"M. c #E9B60C",
"N. c #E5B80B",
"B. c #E9B90C",
"V. c #E9B706",
"C. c #E6B612",
"Z. c #EAB512",
"A. c #E4B912",
"S. c #EAB912",
"D. c #E3B51B",
"F. c #E5BA1B",
"G. c #EABB1D",
"H. c #E9B519",
"J. c #E6B012",
"K. c #C1A42C",
"L. c #DBB324",
"P. c #DBB72B",
"I. c #C4A732",
"U. c #DAB737",
"Y. c #CDB031",
"T. c #E3BB24",
"R. c #ECBD2B",
"E. c #E5B925",
"W. c #E8BC35",
"Q. c #C39624",
"!. c #DBC136",
"~. c #E9C12B",
"^. c #EBC233",
"/. c #EBC33B",
"(. c #E6C236",
"). c #F1C136",
"_. c #9B9053",
"`. c #AD8F52",
"'. c #B7A350",
"]. c #938F74",
"[. c #B39C7C",
"{. c #AF916D",
"}. c #B3AE73",
"|. c #CCB546",
" X c #D9BA46",
".X c #CDAD4F",
"XX c #E5BD44",
"oX c #E2BE58",
"OX c #CDB26B",
"+X c #E5BD65",
"@X c #DDC25A",
"#X c #E7C249",
"$X c #E6C354",
"%X c #F1CA49",
"&X c #DCC464",
"*X c #E8C969",
"=X c #ECCD73",
"-X c #FFEA7B",
";X c #718785",
":X c #8B9E8D",
">X c #B59C85",
",X c #AD9D8C",
"<X c #99AC99",
"1X c #9BB29C",
"2X c #8FAA95",
"3X c #B7A588",
"4X c #A8B689",
"5X c #A8A997",
"6X c #B2AB90",
"7X c #9BADA5",
"8X c #97ADA8",
"9X c #9BB3A3",
"0X c #9CB3AB",
"qX c #98B5A9",
"wX c #9CB7B1",
"eX c #A4B2A9",
"rX c #A5BAB5",
"tX c #AFB4AB",
"yX c #C29E85",
"uX c #C4A68B",
"iX c #C5A58A",
"pX c #CBAD97",
"aX c #CAB299",
"sX c #D8B99B",
"dX c #CABBA1",
"fX c #A7C4B8",
"gX c #B7C4B6",
"hX c #B7C5AD",
"jX c #D6CC92",
"kX c #EADB85",
"lX c #FBE996",
"zX c #F7F18F",
"xX c #CAD4BD",
"cX c #D6D0B4",
"vX c #FFE9A9",
"bX c #FDE7B9",
"nX c #F5EEAD",
"mX c #F1DAB9",
"MX c #AEBDC0",
"NX c #ABC4C0",
"BX c #D2DAC5",
"VX c #FADEC3",
"CX c #E5DBCA",
"ZX c #FAE3C5",
"AX c #FBE4CB",
"SX c #FDEACD",
"DX c #F7E6C5",
"FX c #FEECD3",
"GX c #F9EAD3",
"HX c #FCF2DA",
"JX c #ECE7CB",
"KX c #EAEDD6",
/* pixels */
"n.n.Z.Z.n.n.m.M.m.n.C.C.M.M.m.n.n.m.m.n.n.N.M.Z.M.B.n.n.m.B.B.m.m.M.C.C.m.m.m.A.Z.M.Z.Z.C.S.A.m.n.n.m.m.C.m.m.m.m.m.m.m.m.m.m.m.",
"n.m.Z.Z.n.n.M.M.M.m.C.C.M.M.m.n.m.M.B.m.n.m.M.M.m.n.m.m.B.M.C.m.m.C.C.C.C.A.A.A.C.Z.M.M.m.m.m.B.n.n.m.m.C.C.m.m.m.m.m.m.m.m.m.m.",
"M.Z.H.H.M.n.M.M.M.m.C.C.M.M.n.m.M.M.B.m.m.m.m.S.b.n.m.C.Z.Z.H.G.G.G.G.T.F.F.F.F.F.G.C.m.A.N.M.M.m.m.m.m.m.m.m.m.m.m.m.m.m.m.m.m.",
"M.Z.H.H.m.m.M.M.M.m.C.m.M.M.m.m.M.M.m.B.S.S.Z.M.N.B.Z.Z.M.G.v.k.k.k.I.K.K.K.I.I.K.v.c.n.N.N.n.B.m.C.C.m.m.m.m.m.m.m.m.m.m.m.m.m.",
"n.n.M.m.n.n.m.m.m.m.C.C.M.M.M.m.m.S.Z.Z.Z.M.M.M.m.m.C.Z.n.P.^ q q t `  . . ._ _ { X.v.B.B.n.N.N.C.C.C.C.m.C.m.m.m.n.m.m.m.m.m.m.",
"n.n.n.n.n.N.m.m.m.m.C.C.m.m.M.m.m.C.C.D.H.J.C.C.D.D.D.C.l.!.{ r l k %.&.%.&.$.>.*. .U.S.M.m.A.A.C.C.C.C.m.m.m.m.n.n.m.m.m.m.m.m.",
"m.M.M.M.m.m.m.M.M.M.m.m.n.n.C.C.m.l.F.E.W./.(.^.^.~.^.^.^.@X .f l z %.6.6.&.%.$.,.{ Y.D.H.Z.Z.C.C.C.Z.M.M.M.M.M.M.M.m.m.m.m.m.m.",
"M.M.M.Z.m.m.M.M.M.M.M.m.n.n.Z.Z.N.A.E.f.8.q.9.9.9.9.w.9.9.t.) f l k O.@.@.@.>.$.#.o.Y.G.H.H.Z.M.M.m.M.M.M.M.M.M.M.M.m.m.m.m.m.m.",
"n.n.Z.Z.m.m.M.M.Z.Z.M.m.n.n.Z.Z.M.z.%XN o o         o o     9 l k l g g f x 4.&.#.o.Y.F.C.C.B.N.m.N.B.n.M.M.M.M.M.M.m.m.m.m.n.n.",
"n.n.C.C.C.C.M.M.Z.M.S.A.z.A.D.H.Z.D.XX! o < a ; p p ; p a : f l h l g g l x 4.&.$. .Y.x.D.A.m.N.B.n.b.b.N.N.M.M.Z.Z.C.C.C.m.n.n.",
"C.m.C.C.C.C.m.M.M.B.A.T.!.!.(.L.F.x.XX!   ; : a p p ; ; ; ; f l z j h l h x 4.%.&. .|./.R.F.b.N.m.m.n.n.n.m.M.M.Z.Z.C.C.C.m.n.n.",
"C.C.m.m.m.C.C.m.N.m.T.f.0.d.q.k.T.x.#X!   a - y p p ; ; ; ; f x j j h l h x 4.&.&.<._.k.f.v.G.m.A.A.m.m.m.B.B.M.Z.Z.C.C.m.m.n.n.",
"Z.M.M.V.M.M.m.m.m.z.!.9.~ ` ~ h.W.x.XX! o ; u u y ; ; y y ; f h l l l l k x &.&.&.*.c q q q.T.m.l.A.A.A.m.m.B.m.M.M.C.C.C.m.n.n.",
"M.M.M.V.M.m.m.m.m.c.!.0._ <._ g.W.L.oX! o p y - : : - - - ; f z l l l k k x &.&.&.&.h x t t.#Xx.E.E.D.A.A.m.m.n.M.M.m.C.C.C.m.m.",
"M.m.m.m.M.M.m.M.Z.D.(.q.~  .~ g.#XU.*X~   % & ; ; : : > - = f z j j z k l x %.%.$.%.x g w s.@XU.P.E.D.D.C.m.N.m.n.m.m.m.C.C.m.m.",
"n.n.C.C.C.M.M.M.Z.H.E.k.h.g.h.j.j.j._._ c x k * ; ; - > > * a p p a a a : ; d 9 d < : < + ) t.u.8.f.E.G.C.m.m.n.n.n.m.M.Z.m.m.m.",
"n.n.m.C.C.m.m.C.S.C.C.F.~.U.#Xj.~ ` ` #.>.6.=.* y y y u : - : ; = = y ; = = = = ; * ; = + g ,. .{ t.(.m.M.M.m.N.N.n.M.M.M.M.m.m.",
"m.m.m.m.C.m.m.m.C.m.m.n.n.A.W.j. .*.3.:.*.&.@.. & ; ; , + * = = * = ; ; * = = * ; ; ; = + x <. .{ t.W.b.M.B.A.N.N.n.M.M.M.M.m.C.",
"m.m.m.m.m.m.m.m.Z.Z.B.n.n.A.W.j.{ -.-.-.-.-.' w r r 6 6 5 f 9 < < < a a < < < a s s a < + ) t.X.^ d.T.B.M.M.C.A.n.m.Z.M.M.n.C.C.",
"m.m.m.m.m.n.m.m.C.C.M.n.n.D.W.e.m L V L L V -.,X,X,X>X3X>X5X7.*.%.%.%.%.%.%.&.4.4.4.%.>.` _..X|. XP.A.b.M.S.A.m.m.m.Z.Z.M.m.C.C.",
"m.m.m.m.m.n.m.m.m.C.m.m.n.D.W.e.m J P J P A ..uX3X3X3X3X3X6X7.*.>.>.>.>.>.>.&.&.&.%.>.,._ _.#Xc.c.c.m.B.M.M.m.S.m.Z.Z.Z.m.m.A.C.",
"m.m.m.m.m.n.n.n.m.S.B.B.m.D.W.e.M K A b C v [ yX[.[.[.[.[.3X2.#.*.#.#.#.#.*.*.*.#.#.#.#._ g.T.b.b.m.N.B.M.M.M.B.M.Z.Z.Z.m.m.A.A.",
"m.m.m.m.m.n.n.n.m.m.m.S.b.C.W.e.m Z P p.i.i.s.sXaXaXaXaXaXdX].1.2.2.2.2.2.2.2.2.2.2.2.2.o.k.E.V.n.B.M.M.m.B.N.b.M.M.Z.M.m.n.n.n.",
"m.m.m.m.m.n.n.n.B.m.m.S.C.C.W.r.M A U AXSXSXAXSXAXFXFXAXSXSXdX3X3X3X3X6X6X6X6X6X3X3X6X3X}..XT.V.M.M.M.M.n.n.b.N.M.Z.Z.M.m.n.n.n.",
"M.M.m.m.m.m.m.n.B.b.m.S.C.C.R.r.M A [ VXVXDXDXDXAXAXAXAXDXSXpX[.[.>X>X>X>X>X>X>X[.[.3X[.OX.XE.Z.Z.Z.C.m.n.n.n.n.M.M.M.M.m.n.n.n.",
"M.M.m.m.m.m.m.n.m.B.B.m.m.G.R.r.v m D ZXHXFXSXAXAXAXAXZXSXZXsXiXiXiXuXuXuXuXuXiXiXiX[.[.{..XW.H.Z.Z.C.m.N.n.n.m.m.M.M.M.Z.m.n.n.",
"M.M.m.m.C.C.m.m.n.M.M.m.m.C.G.Q.r.w.y.`.{.{.uXFXAXAXAXFXVXAX{.p.a.p.p.p.p.p.p.a.i.].cXjXjXoXL.H.Z.M.m.N.N.m.C.C.m.m.m.Z.Z.Z.m.n.",
"M.M.m.m.C.C.m.n.M.m.M.S.m.m.G.E.R.XX.XM v 4 ;.FXAXAXAXAXZXFXi.4 C n n n n n n C v a.FXDXbX*XL.Z.M.m.n.N.A.C.C.C.m.m.m.C.Z.Z.m.m.",
"M.M.m.m.C.C.m.n.M.M.M.Z.B.M.m.C.C.E..XF D B ;.FXVXZXVXZXZXAXa.A P Z Z Z Z Z Z T B a.FXmXvX=Xx.M.M.n.n.n.C.C.Z.C.m.n.m.m.Z.Z.m.m.",
"M.M.n.m.C.C.m.m.M.M.M.M.m.B.M.b.M.E..XN A V a.HXSXSXFXSXAXHX;.4 B n n n n n B B 4 a.HXSXbX=Xx.B.n.n.n.m.Z.Z.Z.m.n.N.m.m.M.M.C.m.",
"M.M.n.m.C.C.C.m.M.m.M.M.M.m.M.B.M.T.|.q 3 5 G a.p.p.i.p.a.;.>XaXpXpXpXpXpXpXpXpXaX[.;.p.u.k.R.n.m.m.m.Z.Z.Z.M.V.n.N.m.m.M.M.m.m.",
"M.M.M.M.C.C.m.m.n.m.B.M.M.M.B.b.m.E.'.2 o 1 6 V B n b b B v aXHXFXFXFXFXFXFXFXFXHXiX4 M v e.R.m.m.m.m.Z.Z.M.M.M.n.n.m.m.M.M.m.m.",
"m.m.M.M.M.M.m.N.N.N.n.M.M.M.M.M.b.E..X# $ = 5 I A Z Z Z P B pXFXZXZXAXAXAXDXDXDXSXuXn D M y.R.M.M.M.m.m.m.m.C.C.C.C.C.m.M.M.m.m.",
"m.m.M.M.M.M.n.n.N.N.m.B.M.Z.C.x.P.|.'.2 + > 6 L L A A A Z B pXFXVXVXVXVXZXZXZXVXFXyXC C M y.R.M.M.M.m.m.n.n.C.C.C.C.C.m.n.n.M.M.",
"m.m.m.M.M.M.M.n.m.m.C.A.m.A.P.Y.}.4X4X:X:X2X7.+ < @ 7 J B Z T U Y ] ] ] ] ] ] ] E U C A M e.R.V.M.Z.C.C.n.n.m.m.m.m.m.m.m.n.m.m.",
"N.N.n.n.M.M.M.M.C.C.C.C.N.c.P..X4X1X7XeXwXfX;X. = , r L S C C A C C C C C C C C C A K A m e.R.b.Z.C.C.m.n.n.n.m.n.m.m.m.m.n.n.n.",
"N.N.N.n.C.C.M.M.Z.C.Z.B.m.D.P..X4XqXqX0X8XrX;X% = + 6 L S Z P K J K Z Z Z K K K K J J S m y.W.Z.C.C.C.m.n.n.n.n.n.n.Z.Z.M.m.m.m.",
"n.n.n.n.C.C.Z.Z.Z.Z.Z.D.L.U.|.}.1XwX0X0X0XwX;Xd k f c G V V V G G G V V G G G G G G c H m y.^.b.C.m.m.m.n.n.m.m.n.n.M.M.m.m.m.m.",
"Z.Z.Z.M.M.M.Z.Z.Z.A.D.P..X}.}.4X1XqXwX8XwXwX8XwXeXrX&.X < 1 , , , , , , , , , , 1 , , $ O 0.(.b.N.n.n.n.M.Z.m.m.m.n.M.Z.M.m.C.C.",
"Z.Z.Z.M.M.M.Z.Z.M.A.c.Y.}.4X1X1XqXwX0X0XqX9X0X0X8XrX6.% ; < : ; : ; = ; ; ; ; ; ; ; ; , o t.(.N.A.N.n.n.M.Z.Z.C.m.m.M.Z.M.m.C.C.",
"A.C.Z.M.n.n.C.C.B.A.c.|.}.9X9X9X8X8X7X9X<X<X1X9X8XMX5.. % % i y : - > ; : : ; ; : * . +   X.#Xz.x.c.m.m.Z.Z.Z.C.m.m.M.M.M.m.C.A.",
"N.C.Z.M.n.N.A.A.m.m.x.|.4X0X9XgXgXgXgXhXhXhXhX1X0XrX;XO.+.+.d i u > = > : - : : * d +.Q ) _.=X%X%XE.A.m.Z.Z.Z.S.m.m.M.M.M.m.m.m.",
"n.m.Z.M.m.N.N.N.n.S.D.|.4X7XeXKXGXGXGXGXGXHXBX9XqXwXrXwXfXfX+.% u - : : : y : ; . +.fXfXeXxXSXvXlX#XD.C.M.M.m.m.m.m.M.M.M.M.n.m.",
"n.m.Z.Z.m.N.n.n.m.A.x.|.4XeX5XCXSXDXDXAXAXGXBX<XqX8X8X8X8XwXO.. > u u : y u y ; % O.wX2X9XBXGXbXvX$Xx.C.M.M.N.n.m.m.M.M.M.M.n.n.",
"N.N.m.m.N.N.n.n.m.A.E.|.}.<X5XCXSXDXAXAXAXGXBX1XqX0X0XeX7XrXO.. u - * . . % & y % +.fX9X9XxXGXbXvXoXL.A.M.M.N.n.m.A.M.M.M.M.n.N.",
"m.N.N.N.N.m.M.M.B.z.x. XjXcXcXCXAXZXAXAXAXGXBX<X9X8X0X7X7XrXO.% u : 6.6.6.6.; a & +.rXqX<XxXHXbXvX*XL.m.b.V.m.b.A.C.M.M.M.M.m.N.",
"M.M.m.n.n.M.M.M.m.z.T.$XnXGXSXSXDXDXDXAXAXFXBX9X9XqXeX0X7XrXO.* - > 8XNXfX2X* ; % +.rXqX<XxXGXbXvX$Xx.n.V.M.B.A.A.C.M.M.M.M.A.A.",
"Z.Z.M.n.M.M.M.M.m.A.x.XXvXbXZXbXDXDXAXAXAXAXBX<X7X0X7X7XeXrXO.% : = :X9X9X:X+ : % @.rX1X<XcXZXvXlX$Xx.n.N.M.m.m.A.C.m.M.M.M.C.A.",
"Z.Z.M.M.M.M.Z.Z.N.A.z./.lXvXvXbXZXSXAXFXSXFXCXtXtXtXtXtX5XtXQ X , + ].4X4X].  $ X @.tXtX5XcXbXlX-X/.x.A.A.m.m.m.m.m.m.M.M.m.m.m.",
"Z.Z.Z.M.n.m.C.C.m.n.N.E.$X+X+X'.i.p.a.p.p.a.a.;.:.:.:.-.<.1.' I L ) jXnXnXjXL L L ' 1.;...`.=X#X/.E.D.F.A.m.B.m.m.m.C.C.m.m.m.n.",
"m.m.m.m.m.C.C.C.m.b.m.A.x.P.W.e.M T T T D T T U U U T T T Z Y | E [ kXzXzXkX[ Y } } U Y F y.W.z.x.D.D.C.m.m.B.m.M.M.C.C.m.m.m.m.",
"n.n.m.m.A.C.C.m.M.M.N.m.A.D.^.f.F | Y W | R R W Y Y Y | ] Y R R W [ kXzXzXkXD ] ] U W R F y.~.n.A.F.A.m.m.n.n.n.M.M.C.C.m.m.m.m.",
"n.n.N.N.A.C.m.M.M.M.M.m.B.C.R.e.N [ U E U U E E [ U U U U } E E U [ jXlXlXjX~ [ [ P } W N j.R.b.C.A.m.m.N.b.b.N.M.M.C.C.C.m.m.m.",
"n.n.n.m.C.C.n.M.M.M.Z.M.M.m.).w.4 7 7 7 7 7 7 4 7 7 7 7 7 7 7 7 7 t q q q q q 3 7 7 7 7 4 q.R.M.m.A.n.m.b.n.M.M.M.M.m.m.C.m.m.m.",
"M.M.m.C.C.C.M.M.M.M.Z.S.n.m.).8.2 6 5 6 5 r 3 3 5 5 6 6 e < 6 $ 5 5 5 $ # 3 # w 3 6 7 7 2 t.^.b.B.B.m.m.V.N.N.M.M.M.m.m.C.m.m.n.",
"Z.Z.Z.Z.Z.M.M.M.M.B.m.m.m.A.^.8.O 3 # $ $ 0 $ w 6 5 3 # # # # # # 2 $ 5 e 9 0 0 w 3 2 2 O 0.~.b.m.m.M.B.N.M.M.M.M.M.m.C.m.m.n.n.",
"Z.Z.M.M.M.M.m.m.B.m.B.m.N.l.T.f.N ! ! q $ 9 9 5 6 3 q ! N N ! N N ! q $ w 5 $ 0 $ t N N N d.~.m.m.m.M.M.M.M.M.M.M.M.m.m.m.m.n.n.",
"M.M.M.M.M.m.m.m.m.B.m.b.S.l.F.E.W. X+X~ # e < e 6 2 X.@X X XXXU.U.&Xo.# w < 5 w @ { &X XU.P.D.B.m.m.M.M.Z.M.M.M.M.M.m.m.m.m.n.n.",
"M.n.n.n.n.n.C.C.m.B.b.m.S.A.z.A.D.L. X/ @ 9 e 9 e 2 0.#XL.T.x.E.D.#XX.@ r 6 r r @ {  Xx.D.S.m.m.m.m.C.m.C.C.m.m.C.m.m.m.m.m.m.m.",
"m.n.n.n.n.n.C.C.S.m.N.B.J.S.C.m.B.z.(./ O 2 @ @ 2 O ( (.z.C.M.S.b.^.( O 2 8 2 8 O ! /.l.b.N.B.M.m.C.C.C.C.m.C.m.C.m.m.m.m.m.m.m.",
"C.C.m.n.n.n.C.C.S.M.M.B.Z.Z.Z.S.m.D.E.r.^ ^ ^ ^ ^ ^ f.~.A.m.B.m.N.T.f.^ ^ ^ ^ 8.^ r.T.S.S.m.M.S.m.m.C.C.C.C.m.m.m.m.m.m.m.m.m.m.",
"C.C.m.m.n.n.C.C.Z.M.b.M.S.M.m.b.b.A.C.R./.W././.W./.T.C.m.m.m.m.A.A.E././.(.(.^.^.^.C.B.m.m.Z.M.m.m.C.m.m.m.m.m.m.m.m.m.m.m.m.m.",
"Z.M.M.n.n.m.m.C.Z.Z.M.M.M.M.B.N.m.N.S.J.C.D.J.C.D.z.A.S.m.m.S.M.m.S.H.J.z.D.z.A.z.l.B.b.n.n.S.Z.m.m.m.m.m.m.m.n.n.n.m.m.m.m.m.m.",
"M.M.M.M.n.m.m.C.Z.Z.M.M.M.N.b.n.n.N.M.M.Z.M.Z.Z.M.m.M.m.m.m.M.M.Z.Z.Z.Z.m.N.N.n.n.n.n.n.n.N.M.M.m.n.m.m.m.m.n.n.n.n.m.m.m.m.C.C."
};
