/* XPM */
static char *_6f4002f506544eadb4fbe9db3ad7f55xMh47OlZ7rLkZcp4[] = {
/* columns rows colors chars-per-pixel */
"50 50 253 2 ",
"   c #070407",
".  c #170305",
"X  c #0D0315",
"o  c #040419",
"O  c #170815",
"+  c #181617",
"@  c #051D10",
"#  c #280200",
"$  c #2F0F12",
"%  c #1A280E",
"&  c #29360E",
"*  c #040729",
"=  c #051426",
"-  c #1A182A",
";  c #030C35",
":  c #061537",
">  c #141836",
",  c #1A0F24",
"<  c #240C27",
"1  c #2E1929",
"2  c #172B31",
"3  c #272436",
"4  c #312A31",
"5  c #521C0D",
"6  c #592911",
"7  c #462C3A",
"8  c #4D2A2E",
"9  c #6F3C2D",
"0  c #2C461A",
"q  c #474B34",
"w  c #704C35",
"e  c #706A1E",
"r  c #101C46",
"t  c #231D45",
"y  c #162247",
"u  c #162C56",
"i  c #092856",
"p  c #372C48",
"a  c #293757",
"s  c #373552",
"d  c #2F324C",
"f  c #022D64",
"g  c #13386A",
"h  c #2C3D6B",
"j  c #47374A",
"k  c #4A324D",
"l  c #783C4D",
"z  c #4D3F64",
"x  c #2E4453",
"c  c #1E427B",
"v  c #274467",
"b  c #36486A",
"n  c #3A5579",
"m  c #2D4F7A",
"M  c #574759",
"N  c #45465A",
"B  c #775857",
"V  c #6F4E54",
"C  c #776B5A",
"Z  c #48576B",
"A  c #524E70",
"S  c #66466A",
"D  c #67556C",
"F  c #665C76",
"G  c #764864",
"H  c #516B73",
"J  c #6F686F",
"K  c #4D6F57",
"L  c #8D663D",
"P  c #823C4A",
"I  c #915053",
"U  c #936657",
"Y  c #955A61",
"T  c #A05968",
"R  c #8B6E6D",
"E  c #AA7471",
"W  c #A04743",
"Q  c #D67D57",
"!  c #D8776A",
"~  c #E4745E",
"^  c #7B8566",
"/  c #739277",
"(  c #748956",
")  c #8D9535",
"_  c #B5DE1B",
"`  c #AEE619",
"'  c #B3E616",
"]  c #B4E51C",
"[  c #B9E41D",
"{  c #B4E91B",
"}  c #B7E818",
"|  c #B5DE2A",
" . c #B2DE34",
".. c #B3DD3B",
"X. c #BADD38",
"o. c #ADDE34",
"O. c #AEE42D",
"+. c #AEE524",
"@. c #B4E423",
"#. c #B9E523",
"$. c #B3E923",
"%. c #B3E42B",
"&. c #B9E32B",
"*. c #B4E82B",
"=. c #BAEA24",
"-. c #ACE234",
";. c #ADE43B",
":. c #AFE93D",
">. c #B3E333",
",. c #B3E33B",
"<. c #B5EA3C",
"1. c #B8E537",
"2. c #C1D43E",
"3. c #C1E431",
"4. c #C2E81F",
"5. c #898F6F",
"6. c #AE8575",
"7. c #98A676",
"8. c #A7A778",
"9. c #BA8746",
"0. c #CE8648",
"q. c #CB9179",
"w. c #E2836C",
"e. c #EAAE77",
"r. c #D4A35D",
"t. c #ADDC4A",
"y. c #B3DD44",
"u. c #BADC44",
"i. c #B4DD4A",
"p. c #BADC4B",
"a. c #B7D549",
"s. c #ABDC56",
"d. c #B3DC54",
"f. c #BBDA5B",
"g. c #B8D758",
"h. c #ADE342",
"j. c #ADE24B",
"k. c #A9E549",
"l. c #B3E443",
"z. c #B3E34A",
"x. c #B5EB4C",
"c. c #B8E946",
"v. c #ACE755",
"b. c #B4EA53",
"n. c #BBE953",
"m. c #B5E659",
"M. c #B8F149",
"N. c #ADD866",
"B. c #B6D669",
"V. c #B5D378",
"C. c #B3E663",
"Z. c #B5E56C",
"A. c #C3D746",
"S. c #CBD255",
"D. c #CCCF6C",
"F. c #CCE068",
"G. c #184687",
"H. c #2A5485",
"J. c #375986",
"K. c #2D5690",
"L. c #39668A",
"P. c #3B6895",
"I. c #31678F",
"U. c #3C73BA",
"Y. c #4A5F82",
"T. c #496C96",
"R. c #57779B",
"E. c #4F6E8C",
"W. c #777C97",
"Q. c #737287",
"!. c #4A7BA6",
"~. c #577BA5",
"^. c #4778BC",
"/. c #4E72AD",
"(. c #487CC5",
"). c #90798C",
"_. c #B37F81",
"`. c #6E8990",
"'. c #5783A9",
"]. c #598AB9",
"[. c #6886A9",
"{. c #6C97B7",
"}. c #759ABB",
"|. c #728BAE",
" X c #75A3B9",
".X c #659293",
"XX c #6E97C7",
"oX c #78A6C7",
"OX c #75A9D8",
"+X c #938A8D",
"@X c #AB878A",
"#X c #B2918E",
"$X c #98A88D",
"%X c #AAB48C",
"&X c #8E92AA",
"*X c #A496A7",
"=X c #90ADB1",
"-X c #ADB2AD",
";X c #C98986",
":X c #CA978D",
">X c #CCA69A",
",X c #D0A98F",
"<X c #E9A88C",
"1X c #F4B484",
"2X c #F2B58F",
"3X c #CEB0B0",
"4X c #EEBBB3",
"5X c #C298A2",
"6X c #B2CC8D",
"7X c #B0CDB4",
"8X c #9CC799",
"9X c #CBD094",
"0X c #F0C595",
"qX c #D9EF9A",
"wX c #FCFD9C",
"eX c #CFC6AF",
"rX c #EED6B5",
"tX c #D4EBA7",
"yX c #D0EEAF",
"uX c #FAFFAB",
"iX c #FDFFBD",
"pX c #F8FFB5",
"aX c #EEF3BB",
"sX c #86A9C9",
"dX c #88B5DB",
"fX c #8EB0D0",
"gX c #B2B7C7",
"hX c #87B9E6",
"jX c #8FBFF0",
"kX c #91ABD7",
"lX c #C4BAC8",
"zX c #A6C6DA",
"xX c #B6C8DC",
"cX c #ACD2D0",
"vX c #9AC6E8",
"bX c #AED2F2",
"nX c #AFDADD",
"mX c #C7CBD7",
"MX c #FFD6C7",
"NX c #E2DCC9",
"BX c #CEE8D5",
"VX c #EBFFCA",
"CX c #F8FEC6",
"ZX c #E7FFD7",
"AX c #FBFFD6",
"SX c #F0EAD0",
"DX c #CEEFF8",
"FX c #ECFFE6",
"GX c #FBFBEA",
"HX c #E7FAFF",
"JX c #FCF8FA",
"KX c #F2EBEA",
"LX c #C5DFF6",
/* pixels */
"[ [ ' { ] @.$.` ' ' [ #.] #.#.] ' ' $.@.#.#.| #.] [ ] [ ] [ [ ] [ @.] { ' ' @.&.@.{ [ [ _ #.[ [ [ [ ",
"[ [ ] $.] @.@.@.*.@.@.@.@.%.| >.&.@.] @.%.&.>.>.%.%.*.@.+.%.%.@.#.[ ` ` { { [ ] ] ' [ [ [ [ @.] [ [ ",
"[ @.%.*.@.#.%.,.x.x.+.] [ X.S.wXA.3.] @.<.x.b.k.k.;.<.-.;.<.>.%.[ [ { ] ' [ [ [ { ' [ [ } ' @.@.] [ ",
"[ %.;.<.&.#.>.l.b.j.%.#.3.X.wX) S.S.A.X.l.x.b.b.b.x.l.,.-.M.c.;.%.&.%.%.] [ [ [ [ ] @.] [ ' ` $.] [ ",
"] O.v.k.%.#.*.<.>.| =.| A.wX0.w.0.0.e.uXg...>.%.&.%.%.%.*.-.k.k.l.l.z.,.@.[ ] @.%.*.%.@.[ [ ' { ' [ ",
"] O.v.v.%.[ %.*.@.=.| 2.D.9.Q ~ ~ ! E 6.iXB.d.z.y.u.i... .<.b.v.h.x.x.x.<.%.@.%.>.<.%.@.%.#.[ [ [ [ ",
"[ %.b.j.%.@.@.@.] #.X.S.0.w.w.W P Y ).1 J BX7X7X7XyXVX6XB.d.m.j.;.>.>.;.m.m.%.+.;.x.%.%...c.&.[ [ [ ",
"[ %.M.h.%.#.&.%.&.X.A.D.Q ! W P G k - A Y.}.fXzXzX=X-XBXyXpXN.m.>.@.@.-.m.C.<.-.h.x.O.>.y.n.%.#.[ [ ",
"} [ %.*.` #.X.u.p.S.D.0XI I P 1 p s a ~.oXdXbXHXHXHXHXDX-X7XZXB.,.] { &...n.j.j.h.c.l.h.j.n.*.] [ [ ",
"' } [ $.[ %.u.) D.iXCX,Xl l G < t n T.'.hXdXvXLXHXHXH HXxXd 7XVXg.>.@.#.%...m.m.l.-.M.k.s.m.O.{ ] [ ",
"} } #.[ ' &.A.e L U U Y I G z ; i J.~.'.OXhXdXfXHXHX= mXJX> E.cXVXB. .{ @.>.m.m.o.>.O.-.C.C.<.] ] [ ",
"} ' ] @.{ | A.D.9 5 $ 8 l k s : i I.!.'.dXjXhXdXzXHXH s HXH v zXcXZXd.>.1.,.y.n.<.*.+.>.m.v.O.$.] [ ",
"' ' $.` ' =.%.a.8.R C #X#X*Xh r i H.T.~.{.{.oXvXsXDXxXE.bX=XL. X XBX6XN.N.d.,.%.&.] ] $.O.>.@.[ [ [ ",
"' =.%.+.{ ' ` ,.B.CXAXAXAXGXQ.; i H.!.'.R.R.'.}.dXDXHXLXzXDXDXbXvXsX/ ( 7.qXd.,.| =.*.%.@.*.%.#.[ [ ",
"] +...c.%.] =.*...i.u.u.p.B.=X; i c H.H.R.{. XsX}.oXfXfXbXLXbXDXbX}.x d 2 0 8XB.l.%.l.;.<.,.X.>.%.[ ",
"@.>.i.n.%.#.@.%.-.<.&.[ [ p.$X; u h g T.~.sXoX'.!.L.oXvXfXsX}.~.m u ; * * = / ZXd.c.n.m.N.Z.wXi.%.' ",
"&.%.j.n.%.@.[ %.t.m.>.@.[ p.%X* y h A |.T.T.P.P.XXXXbXbX[.Y.b y * > * * * = x ZXs.M.t.B./ K yXB.>.[ ",
"#.%.j.b.%.[ [ %.C.C.>.@.[ i.C d A A A a v H.'.hXjXjXn a > d Z W.`.F * * * * x ZXs.j.N.yXH Y.H VX,.[ ",
"[ %.j.b.%.' ' %.m.s.O.] 4.A.7.A k t r u ~.XXkXkXT.n ; o d N Q.gX&Xd o * * 3 7XCXg.N.8XH Y.n `.ZXi.[ ",
"[ %.h.c.@.{ ' @.b.j.*.[ _ a.-Xt > * y XXkXvX&XA a o X M D M ).-XD   * * 3 -XCXV.B.aX.XdX!.T.E.FXi.@.",
"[ [ %.*.@.[ [ #.c.;.@.@.1.B.@ : u Y.{.sXY.d < 7 J . . ).M 7 M J B   X + +XCXf.d.V.7X X!.T.~.R.ZXi.[ ",
"[ [ ] ] ] [ [ #.-.;.%.o.f.& 2 a v v h : o 7 V E #X# . @X@X8 . B +X.   $XCXB.,.y.VXcXoXI.].dX=XFXi.[ ",
"[ [ @.` ' ' } &.h.b.l.g.& + - > ; ; > j 1 E <X<X:X# # #X3X8 . R @X$ NXCXg...| z.ZXcX{.I.!.vXfXZXi.[ ",
"[ [ @.+.$.@.' %.j.C.d.)   o o 3 k k 4 V 6.<X1X1Xq.# # q.4X6 . B 3XeXCXB.X.[ #.y.ZXnXoXP.oXvXcXVXy.[ ",
"[ ] &.%.;.<.+.%.m.Z.B.6XJ D D j ).5XR U ;X<X1Xe.q.6 5 q.2Xw $ U rXCXS.1.@.' #.y.VX7X].].bXzXZXB.>.' ",
"[ [ &.>.j.x.@.@.n.s.g.uXAXGXAXw 6 6.>X>XU q.<X1X1Xe.1Xe.e.1X2X,XeXCXu.' { { [ z.6X=Xm ].bXcXVXd.%.' ",
"@.&.@.%.z.n.&.[ %.>.&.>.u.y.i.f.e . .   . V :X2Xe.e.e.e.e.e.2Xq.#XCXX.' { { ` z.ZX{.H.].bXcXVXf.>.] ",
"@.@.[ %.z.n.&.} [ ' } } ' $.{ >.g.qXyXBXj X w ;X2X2X2X0X0X0X6.:XSXiXX.[ } [ $.t.BX{.!.hXbXDXpXp.>.@.",
"` { ' %.h.x.*.' { { ] #.[ ] { @.3.a.V.7X`.= - 7 R B C B C B @XrXuXp.| [ ] ] @.j.BXL.XXvXzXFXf.*.>.>.",
"' { [ @.;.<.%.&. .l.u.a.p.p.y.i.a.f.& 0 n E.b y o o o o * - -XAXB.<.&.] #.%.,.N..Xm oXbXnXZXy.@.<.l.",
"[ [ [ #.+.+.@...B.CX7.%X%X8.8.$XeXq + N |.[.sX{.a h m K.G.T.mX6XB...&.' [  .N.ZX.XL.{.nXnXVXl.@.c.z.",
"[ [ @.#.` ` ] y.tX+ + 1 8 8 8 4 1 4 4 p y * L.{.f f K.U.(.H.2 5.uXp.%.%.,.s.yX7X[.J.}.DXFXV.,.%.n.d.",
"[ [ @.@.' { { y.& M V Y ;Xq.q.;X5X3X>X#X).r T.XXg G.i f f J.Z ^ pXa.u.p.qX6X7Xx g m E.=XZXB. .*.n.d.",
"[ [ ] @.@.@.{ p.q k V 5X;X;X;X;X4XKXMX6.Q.y m /.G.^.g f f T.gXeX9XD.F.) 0 BXfXm J.i R.DXCXf.>.%.c.l.",
"[ [ #.*.c.;.*.p.& p D lXlXlXlXKXGXKXrX6.*Xa : g H.XXXXXX~.R.&X3XeXaX9X9Xq 3 a b R.u |.HX6Xg. .[ =.%.",
"[ [ [ *.n.j.%.p.% s D ).&X&XxXHXJXGXMX6.F r y u Z HXDXDX[.E.&X3X#XB B rX3X< 3 o x Z Z 2 & uX1.} ' ' ",
"{ ' ] %.n.t.%.p.& s S ).&X|.xXHXJXJXMX@XF r a A F 3XV -XQ.N Q.R Y I T l E 4X>X$ . O X X 4 aX..} ' ' ",
"` { @.>.n.l.%.i.% , S ).).&XxXxXKXJXMX@XF r y a N *X+X*XF t ; s B Y I T I I I :X,X#XeXSXSXiX..[ &.@.",
"` @.*.<.x.,.@.i.% * S D ).*XxXgXJXJX>X@XF r i H.P.].]././.P.i * 4 B I T l # 6 ,X,XaXCXV.g.y.,.-.,.>.",
"] @.%.,.,.>.$.y.yX+ k S D F -XlX3X3X_.V N a g I.^.U.^.U.U.^.T.u X $ $ V k . $ >X6.rXuXi.%.%.o.b.l.,.",
"#.@.&.&.%.@.$.,.B.& , S S S G 5X#X_.@Xj - ; r u P.^.c c H.H.J.h - + < D M X 4 *XR rXg.&.[ %.m.m.,.%.",
"#.@.@.=.%.@.[ &.p.qX  k z S V E ;XT k < M p o ; ; : = = ; b W.&XgXJXJXQ.N W.Q.+ NXCXA._ [ %.b.n.%.] ",
"' ] &.1.x.,.[ [ %.f.tX+ 3 M V @XR 7 $ j ).1 A -X$X%X8X%X- z ).).+XJXJXmX> H Z 3 6XB.| { &.%.%.*.' ' ",
"{ { @.>.m.b.%.[ @. .B.%X  3 k R j O . 7 7 V NXAXV.B.B.6X5., 7 1 J JXJXHXJ = > $XqXd.>.@.1.%.=.' ' ' ",
"@.@.' %.v.v.;.%.+.%.| S.6X  - 3 O X O . . -XCXN.s.m.n.B.eXX O O < J JXJXGX^ 5.AXd. ...l.M.-.*.] ' ' ",
"@.@.[ +.j.v.:.O.*.@.] | B.VX- o X M J J + 7.g.l.k.x. .f.%Xp D J M   p GX9XiXiXB. .*.l.b.h.-.%.@.] [ ",
"@.@.[ @.%.>.*.@.O.>.&.&.X.g.$Xo o X O 1   7.p.%.h.;.%.p.7.X , O O     $Xg.....X.%.%.c.M.O.*.@.] [ [ ",
"#.[ @.#.[ [ [ @.%.<.c. .&...tX^ ^ 5.( 5.C 9Xu.@.<.<.@...qX^ R R 5.5.^ tX..[ #.[ [ &.O.>.&.[ [ ] [ [ ",
"[ [ [ [ [ [ [ ] @.<.v.m.<. .y.i.y.y.y.f.pXuXX.[ @.@.[ %.g.uXiXiXuXB.uXg.| [ #.] [ ] @.@.@.[ [ [ [ [ ",
"' ' [ [ [ [ [ [ ] <.C.Z.l.%.&.[ { ] [ >.f.f. .[ [ ] $.%...f.B.B.p.c.y.l.%.] [ [ [ [ [ [ [ [ [ [ [ [ "
};
