/* XPM */
static char *cd4d4cea0d26473eb6ad840a90799412nU91fkqn7O6gkIgx[] = {
/* columns rows colors chars-per-pixel */
"50 50 256 2 ",
"   c #040503",
".  c #0A0B06",
"X  c #0C0D0C",
"o  c #050807",
"O  c #0E110C",
"+  c #11120D",
"@  c #1A160B",
"#  c #0D0E11",
"$  c #0E1112",
"%  c #131314",
"&  c #1B1B15",
"*  c #161519",
"=  c #1A1A1B",
"-  c #181816",
";  c #120E0A",
":  c #23160A",
">  c #231C14",
",  c #271D18",
"<  c #35180A",
"1  c #1C2619",
"2  c #2C241C",
"3  c #272519",
"4  c #332A1D",
"5  c #372718",
"6  c #352B17",
"7  c #211F20",
"8  c #2C2622",
"9  c #2D2B24",
"0  c #282A27",
"q  c #332C24",
"w  c #3A2D23",
"e  c #332D2A",
"r  c #342923",
"t  c #273126",
"y  c #343226",
"u  c #3B3224",
"i  c #35322C",
"p  c #3B342C",
"a  c #3D392C",
"s  c #373A27",
"d  c #3D3632",
"f  c #3C3A33",
"g  c #3A3937",
"h  c #313230",
"j  c #1F2523",
"k  c #452816",
"l  c #48351D",
"z  c #563A19",
"x  c #572C11",
"c  c #433323",
"v  c #42352B",
"b  c #433A2C",
"n  c #4B3B2C",
"m  c #4B3727",
"M  c #543D2C",
"N  c #563A27",
"B  c #433C33",
"V  c #4C3C32",
"C  c #433B36",
"Z  c #533E31",
"A  c #462F29",
"S  c #623D27",
"D  c #6A3012",
"F  c #3E4335",
"G  c #5C431C",
"H  c #714900",
"J  c #4B422E",
"K  c #55422D",
"L  c #444235",
"P  c #4D4234",
"I  c #4B443A",
"U  c #49473B",
"Y  c #534434",
"T  c #544C3E",
"R  c #5A4838",
"E  c #5F503D",
"W  c #63432D",
"Q  c #69472C",
"!  c #76492C",
"~  c #634A34",
"^  c #684937",
"/  c #744C38",
"(  c #68523A",
")  c #72533E",
"_  c #745635",
"`  c #7B5129",
"'  c #7A623E",
"]  c #4C4943",
"[  c #554D44",
"{  c #594D44",
"}  c #564F49",
"|  c #5A544D",
" . c #595449",
".. c #5D5753",
"X. c #495241",
"o. c #6B5443",
"O. c #6C5B4B",
"+. c #665746",
"@. c #735542",
"#. c #745A43",
"$. c #7A5B45",
"%. c #735D4C",
"&. c #7C5C4B",
"*. c #795544",
"=. c #685D56",
"-. c #6D5549",
";. c #5D6158",
":. c #74634D",
">. c #7C634B",
",. c #786546",
"<. c #696459",
"1. c #72645D",
"2. c #786755",
"3. c #776F55",
"4. c #6C6A62",
"5. c #726A62",
"6. c #756862",
"7. c #7A7468",
"8. c #787272",
"9. c #5F6460",
"0. c #885836",
"q. c #856435",
"w. c #9A7524",
"e. c #845B47",
"r. c #915241",
"t. c #85634D",
"y. c #8C6A4D",
"u. c #866549",
"i. c #95664C",
"p. c #8B754E",
"a. c #846552",
"s. c #846956",
"d. c #8C6A54",
"f. c #8C6C5A",
"g. c #896655",
"h. c #936A52",
"j. c #936D5B",
"k. c #986A56",
"l. c #8A7559",
"z. c #98765A",
"x. c #95724D",
"c. c #A5785A",
"v. c #B3754D",
"b. c #887767",
"n. c #987965",
"m. c #857D71",
"M. c #897C76",
"N. c #957872",
"B. c #A67C65",
"V. c #BF7D67",
"C. c #B99331",
"Z. c #9F8731",
"A. c #C88F3E",
"S. c #98855A",
"D. c #8E8356",
"F. c #AE874F",
"G. c #978568",
"H. c #8B8478",
"J. c #958879",
"K. c #9A9779",
"L. c #8D876A",
"P. c #A78568",
"I. c #B2846B",
"U. c #A7956A",
"Y. c #B1936C",
"T. c #A98975",
"R. c #B48B76",
"E. c #A79A76",
"W. c #B79877",
"Q. c #B9A77C",
"!. c #B2A96F",
"~. c #DBAC53",
"^. c #C48B75",
"/. c #C69879",
"(. c #CC956C",
"). c #E09E62",
"_. c #CFAE6D",
"`. c #E2A659",
"'. c #EFC65E",
"]. c #FAC875",
"[. c #F3CD70",
"{. c #D6C170",
"}. c #8E8B81",
"|. c #978D85",
" X c #9A9687",
".X c #9A9593",
"XX c #A69A89",
"oX c #B79985",
"OX c #A79A95",
"+X c #AC928E",
"@X c #A8A48A",
"#X c #BAA88A",
"$X c #B9B78C",
"%X c #AAA598",
"&X c #B6A898",
"*X c #B7B698",
"=X c #ACA9A5",
"-X c #B5ACA6",
";X c #BAB6AA",
":X c #BAB6B2",
">X c #AFB3A2",
",X c #C9AB8B",
"<X c #C7B795",
"1X c #D0AD90",
"2X c #E4B99A",
"3X c #F4B58C",
"4X c #C2ADA5",
"5X c #C9B9A9",
"6X c #C6B9B4",
"7X c #D3BEB8",
"8X c #D0BDAF",
"9X c #C19B84",
"0X c #BDC2A5",
"qX c #CAC495",
"wX c #D5CA8F",
"eX c #EFD590",
"rX c #C9C3A6",
"tX c #D5C5A9",
"yX c #C9C7B8",
"uX c #D9D6BB",
"iX c #DAD0B4",
"pX c #E3C9BB",
"aX c #EACFB0",
"sX c #F6E5B1",
"dX c #CAC9C6",
"fX c #D5CCC7",
"gX c #D7D4CB",
"hX c #D4D5D4",
"jX c #DAD9D5",
"kX c #DBDBDB",
"lX c #D7D6D7",
"zX c #CDD2D2",
"xX c #E4D6C8",
"cX c #E5DBD7",
"vX c #EBD2CD",
"bX c #E8E3C5",
"nX c #E8E5DB",
"mX c #F6E7D9",
"MX c #F7F6DA",
"NX c #FAEBCB",
"BX c #DEDEE3",
"VX c #DFE4E0",
"CX c #E3E4E2",
"ZX c #ECECEB",
"AX c #E8E8E5",
"SX c #F5EBE8",
"DX c #EEF0EA",
"FX c #FBF6EC",
"GX c #FDFDEB",
"HX c #F7F6E8",
"JX c #F4F4F4",
"KX c #FAF5F4",
"LX c #FEFCF4",
"PX c #FDFCFC",
"IX c #F8F8F8",
"UX c #F0F0F1",
/* pixels */
"= - = = * % * = * * - % * = - % L ..U p a b U ..s + 3 2 @ : < k x z Q ~ l 3 : @ & 3 9.;.;.<.<.<.6.6.",
"= = - % % % % $ * * * % * = - % - g | a p p a L | 3 > @ : c ^ ) e.y.y.$.( Y b 4 & & F 4.<.4.<.4.6.5.",
"X - - - - % * * * * * * - * - % % + ]  .p y B f T 3 @ ; c @.t.h.h.h.h.u.>.o.Y b 2 & > ..=.<.1.6.6.5.",
"X % % % % # # * * * * * % - - % % X - U L 4 9 B 9 q 3 5 o.t.u.h.c.c.c.j.t.( K n v @ @ C =.=.6.1.5.5.",
"% % X X # % $ $ % * * * % % % - % X + p p r 2 2 > 4 : m #.u.h.c.c.B.c.h.t.) ~ R n : : w 1.=.1.1.5.6.",
"o X % % # - = % % % * * % % - - &   i f 8 q q 2 b 2 : E #.y.c.x.c.I.B.z.y.#.R M V , @ r =.=.=.6.5.1.",
"% o X % X X - % % % % % % - * - O & f y d e , i B 3 5 o.s.n.P.P.P.P.z.y.y.,.( ( V p > 2 | =.| 1.=.=.",
"| &   + X X % % % % $ % - - * - . i B f C f 2 8 e 4 b Y ~ Q Q y.B.P.u.z l N l w b I r , | | | | ..=.",
"g X   X % X % # % # % - % - = + > y p C d p p 8 q q 4 R %.>.Q / h.z.e./ $.>.~ m v L a I |  .| | ..+.",
"% . . X . X % # # % % % % = % + q q p d p d d e p > 4 n %.@.~ W h.z./ S W N 5 k V V p C | |  . .| +.",
"  X X X o % # X # % X X % - X & p q C C e e d d v w V 5 k N ^ S g.i./ S S N k 5 Z n w V | | } } | | ",
"X + X X X X . X # X X % % o - i 4 2 d p 2 , 8 p 4 c ( K ( b.n.t.e.*.e.k.e./ ) @.Z M A V { [ [  .}  .",
"X X . . - X X # X . X X X   8 e q 4 2 , , , , p 5 c >.n.T.T.j.h.I.k.e.h.I.I.n.a.^ M A V T [ [ { [ } ",
". X # o % X # # . . + o . % e 3 p p q 8 q 8 2 b 5 N n.R.9XB.e.k.B.k.e./ k.R.R.g.@.M m m Y { T [ } } ",
"X % % X X # # X X X %   X 9 9 9 q p q q e 2 4 c 5 N B.P.I.k.! ! i.Q S Q e.z.P.a.@.M m n P T T T [ } ",
"# # . # X X X X $ . % . + g 8 U y 9 > 2 9 r u c 5 N d.z.i.k.! S / e.t.t.y.$.t.>.^ M M m n T T [ [ } ",
"# # # # X X X O X . O   i 9 q [ } 2 q > 2 p 4 u 5 K >.$.) / / e.j.n.e.@.) ) ^ $.) N N M n T [ [ } } ",
"# # # # X X X O # %   % f 8 i B B 2 2 q i y 4 u 6 ( >.l.l k ^ / &.g.@.m k m ^ s.) W W M n P | ] [ } ",
"# # # X X X X $ o X $ e i y & p , 2 2 q q e w w 5 o.f.n.t./ Q *.j.j.&.^ ^ &.s.s.) ) W K V P I } } } ",
"X X X X X # # # * o * g 8 e d 8 , 2 q r 8 p q v V o.b.s.d.e.e.g.j.j.g.*.&.a.s.&.$.@.o.K Y V ] | | [ ",
"X X X X X # # # o % h h C e p q p 4 r q d e e d v +.2.s.a.a.j.j.z.j.j.e.*.*.a.&.$.@.o.R V =.| [ | | ",
"X X X X # $ # # o 7 ] d d C v [ a y 3 9 g e h e a { 2.o.#.$.f.n.B.n.f.$.@.*.$.*.$.%.R Z 1.|.<.[ | | ",
"X X X X # $ # X X ] d C P v c u s F t 1 t t h i p ] 1.%.@./ g.n.P.n.t./ ^ *.t.a.&.o.( +.XXJ.}.7...| ",
"X X X X # % # . p I L u J E XX@XT U L 9 1 0 j ] .X6X1.%.a.^ ^ t.j.d.) Q / g.g.>.&.R +.OXM.m.%X%X8.4.",
"X o $ X # X O + [ P c :.s.K #XtX3.b.%X6X-X=X.XdXcXxXb.2.f.f.*.W W W W *.f.f.a.>.o.{ H.7.H.yX-X=X:X=X",
"  $ X $ % %   ] J J l.G.l.z.W.P.,X#X&XpXcXcXSXAXgXSX6X{ :.b.N.n.a.a.s.f.f.s.%.o.O.H.H.OXfXdX:X:XdXyX",
"$ X $   $ O 3  .P 3.G.p.p.W.,X1X9XoX9X5XfXSXjXnXAXnX8.V <.1.2.b.b.b.s.2.s.%.( b.J.H.%XjXdX:XgXdXdXdX",
"j = X X X X | P E.#XQ.Q.P.x.z.W.1X2XT.5XpXxXcXAXZXfX5.m.T T 1.O.:.2.%.%.( %.J.J.|.OXlXgX6XlXgXdXzXhX",
"= - O % o p T O.#XE.U.,X2X/.0.B.W.W.<XtXrXyXjXDXDX}.|.xX|.+.Y R T P Y P O.m.J.m.-XAXhXdXkXkXhXdXhXhX",
"O o % X + ..P 3.E.,.z.Y./.2X/.I.aX/.,XaXbXrXfXLXyX5.%XLXLXnX&X-X&XyXyX@XXXJ.m.;XSXhXzXhXkXhXzXlXkXhX",
"O O . + f [ +.3.U.u.Q ! i.^.^.r.v.^.1X2XpXxXmXHX X5.:XLXHXLXLXLXLXLX;X X7.|.gXnXgXdXzXkXlXhXhXhXhXhX",
"+   O + | U J G.tXY.x.! x D i.V.v.I.3X(./.tXNXxX7.H.nXLXGXHXGXHXHX>Xm.H.J.SXFXAXlXkXlXlXhXhXhXhXCXAX",
"7.X.+ s ] 4 m ,.Q.Y.2X/.v.D v.v.v.).].`.A.F.eX<X<.=XFXFXGXMXGXHX X3.XXm.nXLXCXDXCXhXBXBXlXlXlXZXJXAX",
"s ;.<.<.4 P :.u.P.P.W.^.(.(.eX).A.'.'.'.~.~.sXG.H.dXPXLXHXGXuX@XXX%Xm.yXLXLXPXZXCXlXBXkXkXZXUXPXCXCX",
"U f i b 6 E #.l.P.z.e.e.0.v.].].].].'.'.'.eXwXL.|.PXPXKXGXbX*X@XXXJ.uXLXFXfXfXZXAXhXkXkXZXPXIXZXCXCX",
"% 9 B b K s.u._ d.f.j.e.` v.].~.H C.C.C.[.eXqX3.6XPXPXLXgX&X@XrXK.xXGXmXFX=XOXjXZXkXCXJXPXPXJXkXCXAX",
"e 2 4 6 ,.z.S._ j.n.B.j.q.q._.[.w.H H Z.eXwXK.L.HXLXGXyXXX5X5X*XtXpX8XXX%XfXSXPXKXZXJXPXPXJXZXAXIXPX",
"p q w l l.' p.y.y.P.n.n.z.S.!.{.[.Z._.wX!.iXK.%XGXMXuX@XrX&XXXxX8X4X+Xb.-XOXdXPXPXIXIXPXJXZXZXIXPXPX",
"2 4 w Y n.z G u._ d.P.G.) l.E.S.!.{.,XE.@X;X XuXMXqXK.*XrX@XmX4XvX+X5XcX+X%X.XKXLXPXPXIXPXPXPXPXPXPX",
"a 4 4 E b.( z z z ' ) R R L.J.L.D.D.K.&X:X:XJ.iXqXU.qX$XE.mXfX7XpXN.mX4X4X6XM.gXjXIXPXIXPXPXPXPXPXPX",
"s U b b b.2.z.u._ K ~ n.b.m.|.J.K.L..X=X:X6XT.E.E.Q.$X$XbXGX8X5X+X&X|.+X7X;XgX6XdXKXPXPXPXPXPXPXPXIX",
"3 4 y U 1.b.G.S.l.l.l.G.b.M.H.}. X>X:X=X:X7XoXE.qXiXE.xXGXLX7XJ.5XmX4X+XOX6XSXPXKXPXPXIXPXPXPXIXIXIX",
"s 1 y L u R 2.l.n.n.2.O.m.7.H. X0XyXnXnX&XoX,X<XU.<XmXLXPXFXSX&X+X+X-XSX:X6.KXPXPXPXPXPXPXIXPXPXPXPX",
"@ y F q I P K ( 2.%.R { H.K.XXK.%XgX%X*X( #.<X<XbXGXLXKXPXIX X6XxX&X;XjXSXSXPXPXPXPXIXPXPXLXPXPXIXIX",
"L 2 3 y { n E :.O.O.T 7.m.5XuX*XiX@XXXuXG.p.#XiXGXFXPXPXPXfX%XgX-XcXfXOXIXPXPXPXPXPXPXPXIXIXPXPXIXJX",
"L U y L <.O.:.:.:.O.+.J.|.%XrXuXuXK.#XNX#X$XNXNXHXLXKXPXZXCXPXPXPXPXcXcXJXPXJXIXIXIXPXIXJXIXPXPXIXPX",
"u u u +.+.o.>.,.#.R 7. X=X%X.X;X#XG.W.P.E.bXMXuXgXHXnXFXUXZXPXIXIXIXPXPXJXJXIXIXIXJXJXJXIXPXJXZXIXIX",
"u a c { :.#.:.s.o.R  X%X-XnXdX%X$XU.P.Y.E.qXbX0X*XGXnXnXKXCXPXPXIXJXZXCXAXUXZXZXZXUXJXJXJXJXIXPXIXIX",
"B b P E o.O.:.2.E m.fX:XyXPXZXnXrXU.S.U.E.<XsX$X;XMXHXAXJXnXIXPXIXZXkXVXVXAXAXAXZXUXJXJXIXJXIXPXAXJX",
"f a Y E o.%.:.2.+.;XKXAXCXPXKXnX#XQ.S.p.U.U.#X<XrXMXHXAXJXnXIXPXIXJXVXAXAXAXZXZXUXJXJXJXIXUXJXJXAXIX"
};
